<svg width="32" height="32" viewBox="0 0 32 32" fill="none" xmlns="http://www.w3.org/2000/svg">
<g clip-path="url(#clip0_21_717)">
<path d="M15.9925 31.9587C12.8368 31.9572 9.7524 31.0202 7.12918 29.2661C4.50595 27.512 2.46166 25.0195 1.25473 22.1037C0.0477895 19.188 -0.26761 15.9799 0.348396 12.8849C0.964403 9.78994 2.48416 6.94708 4.71556 4.71568C6.94695 2.48428 9.78982 0.964525 12.8848 0.348518C15.9797 -0.267488 19.1879 0.0479116 22.1036 1.25485C25.0194 2.46178 27.5118 4.50607 29.266 7.1293C31.0201 9.75252 31.9571 12.8369 31.9586 15.9926V31.9512L15.9925 31.9587Z" fill="#C3FF28"/>
</g>
<rect x="8" y="8" width="16" height="16" rx="8" fill="#6600CC"/>
<defs>
<clipPath id="clip0_21_717">
<rect width="32" height="32" fill="white"/>
</clipPath>
</defs>
</svg>
