<svg width="57" height="56" viewBox="0 0 57 56" fill="none" xmlns="http://www.w3.org/2000/svg">
    <path fill-rule="evenodd" clip-rule="evenodd" d="M45.4434 8.83753C45.7699 9.55579 45.4523 10.4027 44.734 10.7292L41.7238 12.0975L48.3126 27.4363C48.3891 27.6144 48.4286 27.8062 48.4286 28.0001C48.4286 30.2734 47.5255 32.4536 45.9181 34.061C44.3106 35.6685 42.1304 36.5715 39.8572 36.5715C37.5839 36.5715 35.4037 35.6685 33.7962 34.061C32.1888 32.4536 31.2857 30.2734 31.2857 28.0001C31.2857 27.8062 31.3252 27.6144 31.4017 27.4363L37.0848 14.2061L29.0477 17.8594C29.0287 17.8685 29.0096 17.8772 28.9903 17.8855L18.8361 22.501L25.4672 38.893C25.536 39.0632 25.5714 39.2451 25.5714 39.4287C25.5714 41.702 24.6684 43.8821 23.0609 45.4896C21.4535 47.0971 19.2733 48.0001 17 48.0001C14.7267 48.0001 12.5466 47.0971 10.9391 45.4896C9.33165 43.8821 8.42859 41.702 8.42859 39.4287C8.42859 39.2451 8.46399 39.0632 8.53284 38.893L14.3365 24.5462L13.3055 25.0149C12.5872 25.3414 11.7403 25.0238 11.4138 24.3055C11.0873 23.5873 11.4049 22.7403 12.1232 22.4139L27 15.6517V9.42868C27 8.6397 27.6396 8.00011 28.4286 8.00011C29.2176 8.00011 29.8572 8.6397 29.8572 9.42868V14.353L39.1622 10.1234C39.2299 10.0857 39.3009 10.0534 39.3743 10.027L43.5517 8.12815C44.27 7.80167 45.1169 8.11927 45.4434 8.83753ZM17 25.581L11.9761 38.0001H22.0239L17 25.581ZM22.5329 40.8573H11.4672C11.7202 41.8373 12.2315 42.7414 12.9594 43.4693C14.031 44.5409 15.4845 45.143 17 45.143C18.5155 45.143 19.969 44.5409 21.0406 43.4693C21.7685 42.7414 22.2798 41.8373 22.5329 40.8573ZM39.8572 14.9911L34.8827 26.5715H44.8316L39.8572 14.9911ZM45.39 29.4287H34.3243C34.5774 30.4087 35.0886 31.3128 35.8166 32.0407C36.8882 33.1124 38.3416 33.7144 39.8572 33.7144C41.3727 33.7144 42.8261 33.1124 43.8978 32.0407C44.6257 31.3128 45.1369 30.4087 45.39 29.4287Z" fill="#140000" fill-opacity="0.8"/>
</svg>
