<svg width="57" height="56" viewBox="0 0 57 56" fill="none" xmlns="http://www.w3.org/2000/svg">
    <path fill-rule="evenodd" clip-rule="evenodd" d="M21.4851 13.5372C20.7304 13.5369 19.9841 13.6956 19.2948 14.003C18.6056 14.3104 17.9888 14.7596 17.4848 15.3214C16.9808 15.8831 16.6008 16.5447 16.3696 17.2632C16.1384 17.9816 16.0612 18.7406 16.143 19.4909C16.1476 19.5331 16.1503 19.5751 16.1512 19.6169C16.2995 20.6495 16.7694 21.4254 17.2985 21.9749C17.8806 22.5794 18.4602 22.836 18.6353 22.876C19.4044 23.0518 19.8854 23.8178 19.7096 24.5869C19.5338 25.3561 18.7678 25.8371 17.9986 25.6613C17.1737 25.4727 16.1233 24.8736 15.2404 23.9567C14.7534 23.4509 14.2951 22.8259 13.9407 22.0809C12.5281 23.6312 11.5314 26.1044 11.5314 28.7572C11.5314 30.0198 11.7607 31.433 12.1766 32.7247C12.2546 32.967 12.338 33.2012 12.4259 33.4263C12.8137 32.7246 13.3184 32.033 13.9452 31.54C14.5654 31.0523 15.4635 31.1596 15.9513 31.7798C16.439 32.3999 16.3317 33.298 15.7115 33.7858C15.4399 33.9995 15.0985 34.4422 14.7821 35.0855C14.496 35.6672 14.2813 36.3097 14.1684 36.8739C14.1013 37.7216 14.2051 38.5743 14.4737 39.3813C14.7439 40.193 15.1751 40.9418 15.7417 41.5829C16.3083 42.2239 16.9984 42.7439 17.7709 43.1117C18.5433 43.4796 19.382 43.6876 20.2367 43.7235C21.0915 43.7593 21.9447 43.6221 22.7452 43.3202C23.5457 43.0184 24.2769 42.5579 24.8952 41.9666C25.5134 41.3752 26.0058 40.6651 26.343 39.8788C26.6768 39.1003 26.8515 38.2631 26.857 37.4162L26.857 37.3979L26.857 37.3943V31.3458C25.8093 32.3369 24.4209 33.1207 22.6446 33.3197C21.8605 33.4076 21.1537 32.8432 21.0658 32.0591C20.978 31.275 21.5424 30.5682 22.3265 30.4804C23.8422 30.3105 24.9335 29.4365 25.6976 28.3219C26.4689 27.197 26.8091 25.959 26.857 25.3402V18.9086L26.857 18.8744C26.8526 18.1807 26.7138 17.4942 26.4483 16.8531C26.1783 16.2014 25.7827 15.6092 25.2839 15.1105C24.7851 14.6117 24.193 14.216 23.5413 13.9461C22.8896 13.6761 22.1911 13.5372 21.4857 13.5372L21.4851 13.5372ZM26.8701 44.0312C27.4117 43.5132 27.8867 42.9323 28.2856 42.3022C28.6846 42.9323 29.1596 43.5132 29.7011 44.0312C30.5973 44.8885 31.6574 45.5559 32.8178 45.9936C33.9782 46.4312 35.2151 46.63 36.4542 46.5781C37.6933 46.5262 38.9091 46.2245 40.0288 45.6913C41.1485 45.1581 42.149 44.4042 42.9703 43.475C43.7917 42.5457 44.4169 41.4602 44.8085 40.2835C45.1356 39.3004 45.2942 38.2706 45.2788 37.2376C46.0782 36.2157 46.6878 34.9225 47.1131 33.5997C47.6128 32.0451 47.8941 30.337 47.8941 28.7572C47.8941 24.8692 46.1576 20.8991 43.3141 18.8821C43.3114 18.0374 43.1786 17.1963 42.9188 16.3887C42.5649 15.2884 41.9831 14.275 41.2113 13.4145C40.4396 12.5541 39.4952 11.8658 38.4397 11.3947C37.3843 10.9235 36.2414 10.68 35.0855 10.6801C32.9032 10.6801 30.8102 11.547 29.2671 13.0901C28.901 13.4562 28.573 13.8532 28.2856 14.275C27.9969 13.8513 27.6685 13.4544 27.3042 13.0901C26.5401 12.3261 25.633 11.7199 24.6346 11.3064C23.6365 10.893 22.5667 10.6801 21.4863 10.6801H21.4857C20.3298 10.6796 19.1867 10.9228 18.131 11.3936C17.0751 11.8646 16.1304 12.5527 15.3582 13.4132C14.5861 14.2738 14.004 15.2873 13.6498 16.3879C13.3898 17.1959 13.2569 18.0374 13.2543 18.8825C10.4135 20.8993 8.67429 24.8687 8.67429 28.7572C8.67429 30.3374 8.95643 32.0457 9.45695 33.6004C9.88283 34.9231 10.4931 36.216 11.2925 37.2376C11.2771 38.2707 11.4356 39.3004 11.7628 40.2835C12.1544 41.4602 12.7796 42.5457 13.6009 43.475C14.4222 44.4042 15.4227 45.1581 16.5424 45.6913C17.6621 46.2245 18.878 46.5262 20.1171 46.5781C21.3562 46.63 22.593 46.4312 23.7534 45.9936C24.9138 45.5559 25.9739 44.8885 26.8701 44.0312ZM30.2283 39.8788C29.8945 39.1003 29.7197 38.2631 29.7142 37.4162L29.7143 37.3979L29.7143 37.3943V31.3467C30.762 32.3381 32.1507 33.1223 33.9274 33.3213C34.7115 33.4092 35.4183 32.8448 35.5062 32.0607C35.594 31.2766 35.0296 30.5698 34.2456 30.482C32.7298 30.3121 31.6385 29.4381 30.8744 28.3235C30.0988 27.1922 29.7591 25.9466 29.7143 25.3313V18.9086L29.7142 18.8744C29.7232 17.4622 30.2881 16.1097 31.2874 15.1105C32.2947 14.1031 33.6609 13.5372 35.0855 13.5372C35.8401 13.5372 36.5861 13.6961 37.2751 14.0037C37.9641 14.3113 38.5805 14.7605 39.0843 15.3222C39.5881 15.8839 39.9679 16.5454 40.199 17.2637C40.43 17.982 40.5072 18.7408 40.4254 19.4909C40.4197 19.5426 40.417 19.5942 40.4169 19.6454C40.2644 20.6645 39.7981 21.4317 39.2735 21.9765C38.6914 22.581 38.1118 22.8375 37.9367 22.8776C37.1676 23.0534 36.6866 23.8194 36.8624 24.5885C37.0382 25.3577 37.8042 25.8387 38.5734 25.6629C39.3983 25.4743 40.4487 24.8752 41.3316 23.9582C41.8184 23.4527 42.2767 22.8279 42.6309 22.0832C44.0426 23.6333 45.037 26.1051 45.037 28.7572C45.037 30.0203 44.8082 31.4336 44.393 32.7254C44.3153 32.9671 44.2323 33.2008 44.1447 33.4253C43.7571 32.7245 43.2528 32.034 42.6268 31.5416C42.0067 31.0539 41.1085 31.1612 40.6208 31.7813C40.133 32.4015 40.2403 33.2996 40.8605 33.7874C41.1322 34.0011 41.4736 34.4438 41.7899 35.0871C42.0751 35.6669 42.2893 36.3072 42.4026 36.87C42.4702 37.7191 42.3665 38.573 42.0975 39.3813C41.8274 40.193 41.3961 40.9418 40.8295 41.5829C40.263 42.2239 39.5728 42.7439 38.8004 43.1117C38.028 43.4796 37.1893 43.6876 36.3345 43.7235C35.4797 43.7593 34.6265 43.6221 33.8261 43.3202C33.0256 43.0184 32.2943 42.5579 31.6761 41.9666C31.0579 41.3752 30.5654 40.6651 30.2283 39.8788Z" fill="#140000" fill-opacity="0.8"/>
</svg>
