<svg width="83" height="91" viewBox="0 0 83 91" fill="none" xmlns="http://www.w3.org/2000/svg">
    <g clip-path="url(#clip0_25_437)">
        <path d="M41 90.2344C63.6437 90.2344 82 71.8781 82 49.2344C82 26.5907 63.6437 8.23437 41 8.23437C18.3563 8.23438 0 26.5907 0 49.2344C0 71.8781 18.3563 90.2344 41 90.2344Z" fill="#C3FF28"/>
        <path fill-rule="evenodd" clip-rule="evenodd" d="M41 89.2344C63.0914 89.2344 81 71.3258 81 49.2344C81 27.143 63.0914 9.23437 41 9.23437C18.9086 9.23438 1 27.143 1 49.2344C1 71.3258 18.9086 89.2344 41 89.2344ZM82 49.2344C82 71.8781 63.6437 90.2344 41 90.2344C18.3563 90.2344 0 71.8781 0 49.2344C0 26.5907 18.3563 8.23438 41 8.23437C63.6437 8.23437 82 26.5907 82 49.2344Z" fill="#140000"/>
        <path fill-rule="evenodd" clip-rule="evenodd" d="M41 89.2344C63.0914 89.2344 81 71.3258 81 49.2344C81 27.143 63.0914 9.23437 41 9.23437C18.9086 9.23438 1 27.143 1 49.2344C1 71.3258 18.9086 89.2344 41 89.2344ZM82 49.2344C82 71.8781 63.6437 90.2344 41 90.2344C18.3563 90.2344 0 71.8781 0 49.2344C0 26.5907 18.3563 8.23438 41 8.23437C63.6437 8.23437 82 26.5907 82 49.2344Z" fill="black" fill-opacity="0.2"/>
        <path fill-rule="evenodd" clip-rule="evenodd" d="M41 89.2344C63.0914 89.2344 81 71.3258 81 49.2344C81 27.143 63.0914 9.23437 41 9.23437C18.9086 9.23438 1 27.143 1 49.2344C1 71.3258 18.9086 89.2344 41 89.2344ZM82 49.2344C82 71.8781 63.6437 90.2344 41 90.2344C18.3563 90.2344 0 71.8781 0 49.2344C0 26.5907 18.3563 8.23438 41 8.23437C63.6437 8.23437 82 26.5907 82 49.2344Z" fill="black" fill-opacity="0.2"/>
        <path fill-rule="evenodd" clip-rule="evenodd" d="M41 89.2344C63.0914 89.2344 81 71.3258 81 49.2344C81 27.143 63.0914 9.23437 41 9.23437C18.9086 9.23438 1 27.143 1 49.2344C1 71.3258 18.9086 89.2344 41 89.2344ZM82 49.2344C82 71.8781 63.6437 90.2344 41 90.2344C18.3563 90.2344 0 71.8781 0 49.2344C0 26.5907 18.3563 8.23438 41 8.23437C63.6437 8.23437 82 26.5907 82 49.2344Z" fill="black" fill-opacity="0.2"/>
        <path opacity="0.3" d="M41 90.2344C63.6437 90.2344 82 71.8781 82 49.2344C82 26.5907 63.6437 8.23437 41 8.23437C18.3563 8.23438 0 26.5907 0 49.2344C0 71.8781 18.3563 90.2344 41 90.2344Z" fill="#FEFCFF"/>
        <g opacity="0.3">
            <path fill-rule="evenodd" clip-rule="evenodd" d="M41 89.2344C63.0914 89.2344 81 71.3258 81 49.2344C81 27.143 63.0914 9.23437 41 9.23437C18.9086 9.23438 1 27.143 1 49.2344C1 71.3258 18.9086 89.2344 41 89.2344ZM82 49.2344C82 71.8781 63.6437 90.2344 41 90.2344C18.3563 90.2344 0 71.8781 0 49.2344C0 26.5907 18.3563 8.23438 41 8.23437C63.6437 8.23437 82 26.5907 82 49.2344Z" fill="#140000"/>
            <path fill-rule="evenodd" clip-rule="evenodd" d="M41 89.2344C63.0914 89.2344 81 71.3258 81 49.2344C81 27.143 63.0914 9.23437 41 9.23437C18.9086 9.23438 1 27.143 1 49.2344C1 71.3258 18.9086 89.2344 41 89.2344ZM82 49.2344C82 71.8781 63.6437 90.2344 41 90.2344C18.3563 90.2344 0 71.8781 0 49.2344C0 26.5907 18.3563 8.23438 41 8.23437C63.6437 8.23437 82 26.5907 82 49.2344Z" fill="black" fill-opacity="0.2"/>
            <path fill-rule="evenodd" clip-rule="evenodd" d="M41 89.2344C63.0914 89.2344 81 71.3258 81 49.2344C81 27.143 63.0914 9.23437 41 9.23437C18.9086 9.23438 1 27.143 1 49.2344C1 71.3258 18.9086 89.2344 41 89.2344ZM82 49.2344C82 71.8781 63.6437 90.2344 41 90.2344C18.3563 90.2344 0 71.8781 0 49.2344C0 26.5907 18.3563 8.23438 41 8.23437C63.6437 8.23437 82 26.5907 82 49.2344Z" fill="black" fill-opacity="0.2"/>
            <path fill-rule="evenodd" clip-rule="evenodd" d="M41 89.2344C63.0914 89.2344 81 71.3258 81 49.2344C81 27.143 63.0914 9.23437 41 9.23437C18.9086 9.23438 1 27.143 1 49.2344C1 71.3258 18.9086 89.2344 41 89.2344ZM82 49.2344C82 71.8781 63.6437 90.2344 41 90.2344C18.3563 90.2344 0 71.8781 0 49.2344C0 26.5907 18.3563 8.23438 41 8.23437C63.6437 8.23437 82 26.5907 82 49.2344Z" fill="black" fill-opacity="0.2"/>
        </g>
        <path d="M13.0432 69.1579C12.3166 72.0817 9.00606 71.6742 10.0154 75.2704C16.7778 83.2608 26.6814 88.334 37 89.7344C47.3186 91.1347 57.3868 87.1381 66 81.2344C70.5 77.7344 70.7851 75.4436 70.8658 72.3874C71.1383 63.0556 61.3683 56.0873 60.8435 51.5946C60.3187 47.1019 64.5375 36.945 64.5375 36.945C64.5375 36.945 71.9256 35.8753 74.5699 29.2228C77.2143 22.5704 67.1617 7.60488 58.179 3.07143C49.1962 -1.46201 34.1577 2.5417 26.7697 13.4627C19.3816 24.3837 28.3543 33.9804 23.6005 39.0436C18.8467 44.1068 6.44245 44.3717 5.12027 54.4981C3.79809 64.6245 13.8305 65.959 13.0432 69.1579Z" fill="#140000"/>
        <path d="M13.0432 69.1579C12.3166 72.0817 9.00606 71.6742 10.0154 75.2704C16.7778 83.2608 26.6814 88.334 37 89.7344C47.3186 91.1347 57.3868 87.1381 66 81.2344C70.5 77.7344 70.7851 75.4436 70.8658 72.3874C71.1383 63.0556 61.3683 56.0873 60.8435 51.5946C60.3187 47.1019 64.5375 36.945 64.5375 36.945C64.5375 36.945 71.9256 35.8753 74.5699 29.2228C77.2143 22.5704 67.1617 7.60488 58.179 3.07143C49.1962 -1.46201 34.1577 2.5417 26.7697 13.4627C19.3816 24.3837 28.3543 33.9804 23.6005 39.0436C18.8467 44.1068 6.44245 44.3717 5.12027 54.4981C3.79809 64.6245 13.8305 65.959 13.0432 69.1579Z" fill="black" fill-opacity="0.2"/>
        <path d="M13.0432 69.1579C12.3166 72.0817 9.00606 71.6742 10.0154 75.2704C16.7778 83.2608 26.6814 88.334 37 89.7344C47.3186 91.1347 57.3868 87.1381 66 81.2344C70.5 77.7344 70.7851 75.4436 70.8658 72.3874C71.1383 63.0556 61.3683 56.0873 60.8435 51.5946C60.3187 47.1019 64.5375 36.945 64.5375 36.945C64.5375 36.945 71.9256 35.8753 74.5699 29.2228C77.2143 22.5704 67.1617 7.60488 58.179 3.07143C49.1962 -1.46201 34.1577 2.5417 26.7697 13.4627C19.3816 24.3837 28.3543 33.9804 23.6005 39.0436C18.8467 44.1068 6.44245 44.3717 5.12027 54.4981C3.79809 64.6245 13.8305 65.959 13.0432 69.1579Z" fill="black" fill-opacity="0.2"/>
        <path d="M13.0432 69.1579C12.3166 72.0817 9.00606 71.6742 10.0154 75.2704C16.7778 83.2608 26.6814 88.334 37 89.7344C47.3186 91.1347 57.3868 87.1381 66 81.2344C70.5 77.7344 70.7851 75.4436 70.8658 72.3874C71.1383 63.0556 61.3683 56.0873 60.8435 51.5946C60.3187 47.1019 64.5375 36.945 64.5375 36.945C64.5375 36.945 71.9256 35.8753 74.5699 29.2228C77.2143 22.5704 67.1617 7.60488 58.179 3.07143C49.1962 -1.46201 34.1577 2.5417 26.7697 13.4627C19.3816 24.3837 28.3543 33.9804 23.6005 39.0436C18.8467 44.1068 6.44245 44.3717 5.12027 54.4981C3.79809 64.6245 13.8305 65.959 13.0432 69.1579Z" fill="black" fill-opacity="0.2"/>
        <path fill-rule="evenodd" clip-rule="evenodd" d="M14.0143 69.3969L14.0137 69.3991C13.624 70.967 12.5841 71.8343 11.8782 72.423C11.7562 72.5247 11.6442 72.618 11.5473 72.7053C11.1919 73.0251 11.0004 73.2655 10.9042 73.54C10.8203 73.7797 10.7723 74.1554 10.9252 74.7964C17.511 82.4835 27.1145 87.3836 37.1345 88.7435C47.0999 90.0959 56.9076 86.2485 65.4096 80.4267C67.5744 78.7393 68.6324 77.4142 69.1825 76.2247C69.7338 75.0325 69.8261 73.8755 69.8661 72.3609L69.8662 72.3582C69.9922 68.0443 67.7969 64.2038 65.3394 60.7569C64.7766 59.9674 64.2081 59.2091 63.6557 58.4723C63.6093 58.4104 63.563 58.3487 63.5169 58.2871C62.9249 57.4972 62.3514 56.7281 61.8456 55.9938C60.862 54.5655 60.0132 53.1052 59.8503 51.7107C59.7002 50.4261 59.892 48.8229 60.2193 47.2112C60.5508 45.5788 61.0404 43.8505 61.541 42.2811C62.0424 40.7092 62.5597 39.2817 62.9514 38.2479C63.1473 37.7306 63.3122 37.3108 63.4285 37.0195C63.4605 36.9392 63.4889 36.8686 63.5132 36.8084C63.533 36.7595 63.55 36.7175 63.5642 36.6826L63.6007 36.5936L63.6129 36.5639L63.6137 36.5622C63.6137 36.562 63.614 36.5614 64.5375 36.945C64.5375 36.945 60.3187 47.1019 60.8435 51.5946C61.0454 53.3233 62.6162 55.4186 64.457 57.874C67.4001 61.7998 71.0334 66.6463 70.8658 72.3874C70.7851 75.4436 70.5 77.7344 66 81.2344C57.3868 87.1381 47.3186 91.1347 37 89.7344C26.6814 88.334 16.7778 83.2608 10.0154 75.2704C9.42872 73.1802 10.3014 72.4426 11.278 71.6172C11.9815 71.0225 12.7389 70.3823 13.0432 69.1579C13.3337 67.9777 12.1513 67.0512 10.6098 65.8434C7.97318 63.7774 4.28591 60.8883 5.12027 54.4981C5.97066 47.985 11.4054 45.5514 16.4405 43.2968C19.2339 42.046 21.9042 40.8503 23.6005 39.0436C25.6813 36.8274 25.1322 33.7426 24.4764 30.0583C23.634 25.3255 22.6155 19.6035 26.7697 13.4627C34.1577 2.5417 49.1962 -1.46201 58.179 3.07143C67.1617 7.60488 77.2143 22.5704 74.5699 29.2228C71.9256 35.8753 64.5375 36.945 64.5375 36.945L63.6137 36.5622L63.8319 36.0367L64.3923 35.9555L64.3935 35.9554L64.4023 35.954C64.4119 35.9525 64.4282 35.9498 64.4509 35.9459C64.4963 35.9381 64.5671 35.9252 64.6603 35.9062C64.847 35.8681 65.123 35.8057 65.4651 35.7105C66.1509 35.5196 67.0934 35.1996 68.1115 34.6858C70.1506 33.6567 72.437 31.8814 73.6406 28.8534C74.181 27.4939 74.1132 25.571 73.4285 23.2507C72.7516 20.9565 71.5104 18.4076 69.8935 15.8934C66.646 10.8439 62.0071 6.12358 57.7284 3.96418C53.5293 1.84495 47.8046 1.68129 42.1723 3.42683C36.5552 5.16767 31.1489 8.77396 27.5979 14.023C24.1221 19.161 24.4715 23.9692 25.1839 28.2871C25.2684 28.7993 25.3599 29.313 25.4509 29.824C25.7359 31.4238 26.0162 32.9969 26.0617 34.4142C26.1236 36.3403 25.7687 38.1952 24.3295 39.7281C23.0088 41.1347 21.2014 42.1656 19.3285 43.0707C18.5228 43.4601 17.6825 43.8364 16.8469 44.2105C16.7051 44.274 16.5635 44.3374 16.4222 44.4008C15.4411 44.8411 14.4686 45.2841 13.5271 45.7633C9.75664 47.6824 6.70734 50.0668 6.11185 54.6275C5.80422 56.9837 6.16072 58.7735 6.81819 60.1899C7.48133 61.6184 8.47911 62.7285 9.54632 63.6791C10.0812 64.1556 10.6238 64.5838 11.1506 64.9967L11.2375 65.0648C11.7243 65.4461 12.2104 65.827 12.6229 66.2008C13.4375 66.9389 14.3602 67.9911 14.0143 69.3969Z" fill="#140000"/>
        <path fill-rule="evenodd" clip-rule="evenodd" d="M14.0143 69.3969L14.0137 69.3991C13.624 70.967 12.5841 71.8343 11.8782 72.423C11.7562 72.5247 11.6442 72.618 11.5473 72.7053C11.1919 73.0251 11.0004 73.2655 10.9042 73.54C10.8203 73.7797 10.7723 74.1554 10.9252 74.7964C17.511 82.4835 27.1145 87.3836 37.1345 88.7435C47.0999 90.0959 56.9076 86.2485 65.4096 80.4267C67.5744 78.7393 68.6324 77.4142 69.1825 76.2247C69.7338 75.0325 69.8261 73.8755 69.8661 72.3609L69.8662 72.3582C69.9922 68.0443 67.7969 64.2038 65.3394 60.7569C64.7766 59.9674 64.2081 59.2091 63.6557 58.4723C63.6093 58.4104 63.563 58.3487 63.5169 58.2871C62.9249 57.4972 62.3514 56.7281 61.8456 55.9938C60.862 54.5655 60.0132 53.1052 59.8503 51.7107C59.7002 50.4261 59.892 48.8229 60.2193 47.2112C60.5508 45.5788 61.0404 43.8505 61.541 42.2811C62.0424 40.7092 62.5597 39.2817 62.9514 38.2479C63.1473 37.7306 63.3122 37.3108 63.4285 37.0195C63.4605 36.9392 63.4889 36.8686 63.5132 36.8084C63.533 36.7595 63.55 36.7175 63.5642 36.6826L63.6007 36.5936L63.6129 36.5639L63.6137 36.5622C63.6137 36.562 63.614 36.5614 64.5375 36.945C64.5375 36.945 60.3187 47.1019 60.8435 51.5946C61.0454 53.3233 62.6162 55.4186 64.457 57.874C67.4001 61.7998 71.0334 66.6463 70.8658 72.3874C70.7851 75.4436 70.5 77.7344 66 81.2344C57.3868 87.1381 47.3186 91.1347 37 89.7344C26.6814 88.334 16.7778 83.2608 10.0154 75.2704C9.42872 73.1802 10.3014 72.4426 11.278 71.6172C11.9815 71.0225 12.7389 70.3823 13.0432 69.1579C13.3337 67.9777 12.1513 67.0512 10.6098 65.8434C7.97318 63.7774 4.28591 60.8883 5.12027 54.4981C5.97066 47.985 11.4054 45.5514 16.4405 43.2968C19.2339 42.046 21.9042 40.8503 23.6005 39.0436C25.6813 36.8274 25.1322 33.7426 24.4764 30.0583C23.634 25.3255 22.6155 19.6035 26.7697 13.4627C34.1577 2.5417 49.1962 -1.46201 58.179 3.07143C67.1617 7.60488 77.2143 22.5704 74.5699 29.2228C71.9256 35.8753 64.5375 36.945 64.5375 36.945L63.6137 36.5622L63.8319 36.0367L64.3923 35.9555L64.3935 35.9554L64.4023 35.954C64.4119 35.9525 64.4282 35.9498 64.4509 35.9459C64.4963 35.9381 64.5671 35.9252 64.6603 35.9062C64.847 35.8681 65.123 35.8057 65.4651 35.7105C66.1509 35.5196 67.0934 35.1996 68.1115 34.6858C70.1506 33.6567 72.437 31.8814 73.6406 28.8534C74.181 27.4939 74.1132 25.571 73.4285 23.2507C72.7516 20.9565 71.5104 18.4076 69.8935 15.8934C66.646 10.8439 62.0071 6.12358 57.7284 3.96418C53.5293 1.84495 47.8046 1.68129 42.1723 3.42683C36.5552 5.16767 31.1489 8.77396 27.5979 14.023C24.1221 19.161 24.4715 23.9692 25.1839 28.2871C25.2684 28.7993 25.3599 29.313 25.4509 29.824C25.7359 31.4238 26.0162 32.9969 26.0617 34.4142C26.1236 36.3403 25.7687 38.1952 24.3295 39.7281C23.0088 41.1347 21.2014 42.1656 19.3285 43.0707C18.5228 43.4601 17.6825 43.8364 16.8469 44.2105C16.7051 44.274 16.5635 44.3374 16.4222 44.4008C15.4411 44.8411 14.4686 45.2841 13.5271 45.7633C9.75664 47.6824 6.70734 50.0668 6.11185 54.6275C5.80422 56.9837 6.16072 58.7735 6.81819 60.1899C7.48133 61.6184 8.47911 62.7285 9.54632 63.6791C10.0812 64.1556 10.6238 64.5838 11.1506 64.9967L11.2375 65.0648C11.7243 65.4461 12.2104 65.827 12.6229 66.2008C13.4375 66.9389 14.3602 67.9911 14.0143 69.3969Z" fill="black" fill-opacity="0.2"/>
        <path fill-rule="evenodd" clip-rule="evenodd" d="M14.0143 69.3969L14.0137 69.3991C13.624 70.967 12.5841 71.8343 11.8782 72.423C11.7562 72.5247 11.6442 72.618 11.5473 72.7053C11.1919 73.0251 11.0004 73.2655 10.9042 73.54C10.8203 73.7797 10.7723 74.1554 10.9252 74.7964C17.511 82.4835 27.1145 87.3836 37.1345 88.7435C47.0999 90.0959 56.9076 86.2485 65.4096 80.4267C67.5744 78.7393 68.6324 77.4142 69.1825 76.2247C69.7338 75.0325 69.8261 73.8755 69.8661 72.3609L69.8662 72.3582C69.9922 68.0443 67.7969 64.2038 65.3394 60.7569C64.7766 59.9674 64.2081 59.2091 63.6557 58.4723C63.6093 58.4104 63.563 58.3487 63.5169 58.2871C62.9249 57.4972 62.3514 56.7281 61.8456 55.9938C60.862 54.5655 60.0132 53.1052 59.8503 51.7107C59.7002 50.4261 59.892 48.8229 60.2193 47.2112C60.5508 45.5788 61.0404 43.8505 61.541 42.2811C62.0424 40.7092 62.5597 39.2817 62.9514 38.2479C63.1473 37.7306 63.3122 37.3108 63.4285 37.0195C63.4605 36.9392 63.4889 36.8686 63.5132 36.8084C63.533 36.7595 63.55 36.7175 63.5642 36.6826L63.6007 36.5936L63.6129 36.5639L63.6137 36.5622C63.6137 36.562 63.614 36.5614 64.5375 36.945C64.5375 36.945 60.3187 47.1019 60.8435 51.5946C61.0454 53.3233 62.6162 55.4186 64.457 57.874C67.4001 61.7998 71.0334 66.6463 70.8658 72.3874C70.7851 75.4436 70.5 77.7344 66 81.2344C57.3868 87.1381 47.3186 91.1347 37 89.7344C26.6814 88.334 16.7778 83.2608 10.0154 75.2704C9.42872 73.1802 10.3014 72.4426 11.278 71.6172C11.9815 71.0225 12.7389 70.3823 13.0432 69.1579C13.3337 67.9777 12.1513 67.0512 10.6098 65.8434C7.97318 63.7774 4.28591 60.8883 5.12027 54.4981C5.97066 47.985 11.4054 45.5514 16.4405 43.2968C19.2339 42.046 21.9042 40.8503 23.6005 39.0436C25.6813 36.8274 25.1322 33.7426 24.4764 30.0583C23.634 25.3255 22.6155 19.6035 26.7697 13.4627C34.1577 2.5417 49.1962 -1.46201 58.179 3.07143C67.1617 7.60488 77.2143 22.5704 74.5699 29.2228C71.9256 35.8753 64.5375 36.945 64.5375 36.945L63.6137 36.5622L63.8319 36.0367L64.3923 35.9555L64.3935 35.9554L64.4023 35.954C64.4119 35.9525 64.4282 35.9498 64.4509 35.9459C64.4963 35.9381 64.5671 35.9252 64.6603 35.9062C64.847 35.8681 65.123 35.8057 65.4651 35.7105C66.1509 35.5196 67.0934 35.1996 68.1115 34.6858C70.1506 33.6567 72.437 31.8814 73.6406 28.8534C74.181 27.4939 74.1132 25.571 73.4285 23.2507C72.7516 20.9565 71.5104 18.4076 69.8935 15.8934C66.646 10.8439 62.0071 6.12358 57.7284 3.96418C53.5293 1.84495 47.8046 1.68129 42.1723 3.42683C36.5552 5.16767 31.1489 8.77396 27.5979 14.023C24.1221 19.161 24.4715 23.9692 25.1839 28.2871C25.2684 28.7993 25.3599 29.313 25.4509 29.824C25.7359 31.4238 26.0162 32.9969 26.0617 34.4142C26.1236 36.3403 25.7687 38.1952 24.3295 39.7281C23.0088 41.1347 21.2014 42.1656 19.3285 43.0707C18.5228 43.4601 17.6825 43.8364 16.8469 44.2105C16.7051 44.274 16.5635 44.3374 16.4222 44.4008C15.4411 44.8411 14.4686 45.2841 13.5271 45.7633C9.75664 47.6824 6.70734 50.0668 6.11185 54.6275C5.80422 56.9837 6.16072 58.7735 6.81819 60.1899C7.48133 61.6184 8.47911 62.7285 9.54632 63.6791C10.0812 64.1556 10.6238 64.5838 11.1506 64.9967L11.2375 65.0648C11.7243 65.4461 12.2104 65.827 12.6229 66.2008C13.4375 66.9389 14.3602 67.9911 14.0143 69.3969Z" fill="black" fill-opacity="0.2"/>
        <path fill-rule="evenodd" clip-rule="evenodd" d="M14.0143 69.3969L14.0137 69.3991C13.624 70.967 12.5841 71.8343 11.8782 72.423C11.7562 72.5247 11.6442 72.618 11.5473 72.7053C11.1919 73.0251 11.0004 73.2655 10.9042 73.54C10.8203 73.7797 10.7723 74.1554 10.9252 74.7964C17.511 82.4835 27.1145 87.3836 37.1345 88.7435C47.0999 90.0959 56.9076 86.2485 65.4096 80.4267C67.5744 78.7393 68.6324 77.4142 69.1825 76.2247C69.7338 75.0325 69.8261 73.8755 69.8661 72.3609L69.8662 72.3582C69.9922 68.0443 67.7969 64.2038 65.3394 60.7569C64.7766 59.9674 64.2081 59.2091 63.6557 58.4723C63.6093 58.4104 63.563 58.3487 63.5169 58.2871C62.9249 57.4972 62.3514 56.7281 61.8456 55.9938C60.862 54.5655 60.0132 53.1052 59.8503 51.7107C59.7002 50.4261 59.892 48.8229 60.2193 47.2112C60.5508 45.5788 61.0404 43.8505 61.541 42.2811C62.0424 40.7092 62.5597 39.2817 62.9514 38.2479C63.1473 37.7306 63.3122 37.3108 63.4285 37.0195C63.4605 36.9392 63.4889 36.8686 63.5132 36.8084C63.533 36.7595 63.55 36.7175 63.5642 36.6826L63.6007 36.5936L63.6129 36.5639L63.6137 36.5622C63.6137 36.562 63.614 36.5614 64.5375 36.945C64.5375 36.945 60.3187 47.1019 60.8435 51.5946C61.0454 53.3233 62.6162 55.4186 64.457 57.874C67.4001 61.7998 71.0334 66.6463 70.8658 72.3874C70.7851 75.4436 70.5 77.7344 66 81.2344C57.3868 87.1381 47.3186 91.1347 37 89.7344C26.6814 88.334 16.7778 83.2608 10.0154 75.2704C9.42872 73.1802 10.3014 72.4426 11.278 71.6172C11.9815 71.0225 12.7389 70.3823 13.0432 69.1579C13.3337 67.9777 12.1513 67.0512 10.6098 65.8434C7.97318 63.7774 4.28591 60.8883 5.12027 54.4981C5.97066 47.985 11.4054 45.5514 16.4405 43.2968C19.2339 42.046 21.9042 40.8503 23.6005 39.0436C25.6813 36.8274 25.1322 33.7426 24.4764 30.0583C23.634 25.3255 22.6155 19.6035 26.7697 13.4627C34.1577 2.5417 49.1962 -1.46201 58.179 3.07143C67.1617 7.60488 77.2143 22.5704 74.5699 29.2228C71.9256 35.8753 64.5375 36.945 64.5375 36.945L63.6137 36.5622L63.8319 36.0367L64.3923 35.9555L64.3935 35.9554L64.4023 35.954C64.4119 35.9525 64.4282 35.9498 64.4509 35.9459C64.4963 35.9381 64.5671 35.9252 64.6603 35.9062C64.847 35.8681 65.123 35.8057 65.4651 35.7105C66.1509 35.5196 67.0934 35.1996 68.1115 34.6858C70.1506 33.6567 72.437 31.8814 73.6406 28.8534C74.181 27.4939 74.1132 25.571 73.4285 23.2507C72.7516 20.9565 71.5104 18.4076 69.8935 15.8934C66.646 10.8439 62.0071 6.12358 57.7284 3.96418C53.5293 1.84495 47.8046 1.68129 42.1723 3.42683C36.5552 5.16767 31.1489 8.77396 27.5979 14.023C24.1221 19.161 24.4715 23.9692 25.1839 28.2871C25.2684 28.7993 25.3599 29.313 25.4509 29.824C25.7359 31.4238 26.0162 32.9969 26.0617 34.4142C26.1236 36.3403 25.7687 38.1952 24.3295 39.7281C23.0088 41.1347 21.2014 42.1656 19.3285 43.0707C18.5228 43.4601 17.6825 43.8364 16.8469 44.2105C16.7051 44.274 16.5635 44.3374 16.4222 44.4008C15.4411 44.8411 14.4686 45.2841 13.5271 45.7633C9.75664 47.6824 6.70734 50.0668 6.11185 54.6275C5.80422 56.9837 6.16072 58.7735 6.81819 60.1899C7.48133 61.6184 8.47911 62.7285 9.54632 63.6791C10.0812 64.1556 10.6238 64.5838 11.1506 64.9967L11.2375 65.0648C11.7243 65.4461 12.2104 65.827 12.6229 66.2008C13.4375 66.9389 14.3602 67.9911 14.0143 69.3969Z" fill="black" fill-opacity="0.2"/>
        <path fill-rule="evenodd" clip-rule="evenodd" d="M58.5417 12.8878C58.7331 12.8087 58.9524 12.8997 59.0315 13.0911L58.712 13.2232C59.0315 13.0911 59.0317 13.0914 59.0318 13.0917L59.0321 13.0924L59.0329 13.0944L59.0353 13.1002L59.0426 13.1191C59.0486 13.1348 59.0569 13.1568 59.0667 13.1848C59.0865 13.2409 59.113 13.3211 59.1423 13.4231C59.2006 13.6269 59.27 13.9189 59.3178 14.2802C59.4132 15.0027 59.4226 16.0071 59.0801 17.1396C58.3891 19.4244 56.3005 22.1276 50.8949 24.1087C47.0504 25.5177 43.4968 26.1559 40.4386 26.7051C39.2353 26.9211 38.1087 27.1235 37.0713 27.3535C35.2191 27.7643 33.6522 28.2607 32.3846 29.0618C31.1281 29.8559 30.1516 30.9584 29.4944 32.6126C27.4274 37.8153 28.1741 41.7527 28.7831 44.9635C28.9704 45.951 29.1447 46.8698 29.22 47.7355C29.2658 48.2616 29.1462 48.725 28.8858 49.1301C28.6302 49.5276 28.2509 49.8509 27.8027 50.1274C26.9154 50.6747 25.6648 51.092 24.3004 51.5234C24.1448 51.5726 23.9873 51.6221 23.8282 51.6721C21.1554 52.5125 18.0403 53.4918 15.6712 55.5647C15.063 56.0968 14.7034 56.6238 14.523 57.136C14.3434 57.6458 14.3329 58.1648 14.4607 58.6977C14.7207 59.782 15.551 60.9136 16.6799 62.048C17.8014 63.1749 19.171 64.2599 20.4485 65.2621C20.5093 65.3098 20.5699 65.3573 20.6304 65.4047C21.8246 66.341 22.9389 67.2146 23.6198 67.9576C25.0697 69.5395 25.6523 71.5439 25.1952 73.3755C24.7358 75.2165 23.2459 76.8067 20.7079 77.5926C20.51 77.6538 20.3 77.5431 20.2387 77.3453C20.1775 77.1474 20.2882 76.9374 20.486 76.8761C22.8213 76.153 24.0829 74.7354 24.4675 73.1939C24.8546 71.6429 24.3737 69.8901 23.0669 68.4643C22.4291 67.7685 21.3587 66.929 20.1319 65.967C20.0834 65.9289 20.0346 65.8906 19.9856 65.8522C18.7131 64.854 17.3073 63.7417 16.1483 62.5771C14.9968 61.42 14.0415 60.1658 13.7314 58.8725C13.5741 58.2166 13.5824 57.5489 13.8156 56.8869C14.0479 56.2272 14.4949 55.5974 15.1773 55.0002C17.6699 52.8194 20.9275 51.7966 23.5736 50.9659C23.7431 50.9126 23.9102 50.8602 24.0743 50.8083C25.4589 50.3705 26.6153 49.9785 27.409 49.489C27.8013 49.2471 28.081 48.9951 28.2549 48.7245C28.424 48.4615 28.5045 48.1641 28.4728 47.8006C28.405 47.0207 28.2409 46.1599 28.0604 45.2131C27.4456 41.9882 26.6405 37.7646 28.7974 32.3357C29.5134 30.5334 30.594 29.3062 31.9839 28.4278C33.3626 27.5565 35.0313 27.0377 36.9089 26.6213C37.9939 26.3807 39.1495 26.1733 40.3709 25.954C43.4106 25.4084 46.8575 24.7896 50.6369 23.4045C55.8865 21.4805 57.7574 18.9226 58.3622 16.9225C58.6676 15.9126 58.6588 15.0187 58.5742 14.3784C58.532 14.0584 58.4709 13.8028 58.4212 13.6296C58.3964 13.543 58.3746 13.4772 58.3595 13.4344C58.3519 13.413 58.3461 13.3974 58.3424 13.3878L58.3386 13.3781L58.3384 13.3776L58.3383 13.3772C58.2595 13.1859 58.3505 12.9669 58.5417 12.8878Z" fill="#FEFCFF"/>
        <path fill-rule="evenodd" clip-rule="evenodd" d="M53.9216 5.01305C54.0439 4.84587 54.2785 4.80945 54.4457 4.9317C56.1291 6.16269 57.2875 7.60756 57.3703 9.35634C57.4529 11.1002 56.4586 13.006 54.187 15.1434C51.8068 17.383 48.8747 17.276 45.9125 16.8599C45.3902 16.7866 44.8696 16.704 44.3489 16.6215C43.3697 16.4663 42.3902 16.311 41.3975 16.2164C39.8897 16.0727 38.4033 16.0762 36.9649 16.4396C34.1182 17.1587 31.7175 19.8388 30.0043 22.4292C29.1553 23.7129 28.4901 24.9514 28.0371 25.8695C27.8107 26.3282 27.6377 26.7061 27.5216 26.9686C27.4636 27.0999 27.4198 27.2022 27.3907 27.2713C27.3761 27.3059 27.3652 27.3321 27.3581 27.3495L27.3501 27.3689L27.3483 27.3734L27.3479 27.3744C27.2705 27.5665 27.052 27.6596 26.8599 27.5822C26.6678 27.5048 26.5748 27.2864 26.6522 27.0943L27 27.2344C26.6522 27.0943 26.6521 27.0944 26.6522 27.0943L26.6532 27.0919L26.6556 27.0859L26.6646 27.0639C26.6725 27.0447 26.6842 27.0166 26.6995 26.9801C26.7303 26.9072 26.7758 26.8008 26.8357 26.6653C26.9556 26.3944 27.133 26.0069 27.3645 25.5376C27.8272 24.5998 28.5078 23.3323 29.3787 22.0155C31.1054 19.4047 33.6411 16.5056 36.7812 15.7124C38.3361 15.3197 39.9179 15.3219 41.4687 15.4698C42.4825 15.5664 43.5055 15.7284 44.5005 15.8859C45.0152 15.9674 45.5223 16.0478 46.0169 16.1172C48.9653 16.5314 51.5683 16.5776 53.6731 14.5971C55.8865 12.5144 56.6882 10.8079 56.6211 9.39183C56.5543 7.9806 55.6173 6.71763 54.003 5.5371C53.8358 5.41485 53.7994 5.18023 53.9216 5.01305Z" fill="#FEFCFF"/>
        <path fill-rule="evenodd" clip-rule="evenodd" d="M62.6996 17.0099C62.8236 16.844 63.0586 16.81 63.2245 16.934L63 17.2344C63.2245 16.934 63.2244 16.9339 63.2245 16.934L63.2269 16.9358L63.2327 16.9402L63.2546 16.9567C63.2735 16.9712 63.3012 16.9924 63.3369 17.0201C63.4083 17.0755 63.5119 17.1569 63.6421 17.2623C63.9025 17.4729 64.2697 17.7793 64.6995 18.1644C65.5581 18.9337 66.6719 20.0217 67.684 21.2915C68.6936 22.5582 69.6176 24.025 70.0744 25.5518C70.5338 27.0872 70.5246 28.7013 69.6365 30.216C69.2158 30.9337 68.8206 31.4686 68.4464 31.8478C68.0736 32.2257 67.7039 32.4668 67.3326 32.5627C66.5318 32.7697 65.9468 32.2689 65.574 31.7178C65.1964 31.1597 64.9434 30.43 64.7861 29.8635C64.7062 29.5759 64.6486 29.3214 64.6109 29.1384C64.592 29.0468 64.578 28.9728 64.5687 28.9213C64.564 28.8954 64.5605 28.8752 64.5581 28.8612L64.5554 28.8448L64.5546 28.8402L64.5544 28.8388C64.5544 28.8386 64.5543 28.8381 64.8893 28.7845L64.5544 28.8388C64.5217 28.6343 64.6609 28.4412 64.8654 28.4085C65.0698 28.3759 65.2621 28.5151 65.2949 28.7195C65.2949 28.7195 65.2949 28.7195 65.2949 28.7195L65.2954 28.7228L65.2975 28.7355C65.2995 28.7471 65.3026 28.7647 65.3067 28.7878C65.3151 28.834 65.3279 28.9019 65.3454 28.987C65.3806 29.1573 65.4344 29.3949 65.5088 29.6628C65.66 30.2074 65.8871 30.8422 66.1952 31.2976C66.508 31.7601 66.8145 31.922 67.145 31.8366C67.3394 31.7864 67.5954 31.6425 67.9126 31.3211C68.2284 31.001 68.5875 30.5224 68.9895 29.8367C69.7471 28.5446 69.7716 27.1562 69.3559 25.7668C68.9376 24.3689 68.0776 22.9886 67.0975 21.759C66.1199 20.5325 65.0384 19.4751 64.199 18.723C63.7799 18.3475 63.4224 18.0492 63.1704 17.8454C63.0444 17.7434 62.9449 17.6652 62.8772 17.6127C62.8434 17.5864 62.8175 17.5666 62.8004 17.5536L62.7812 17.539L62.7766 17.5356L62.7756 17.5349" fill="#FEFCFF"/>
        <path d="M19 83.2209C28 88.7344 35.5 90.2344 45.4207 89.7344C54.8397 88.8786 63.0787 83.8763 70 77.2344C66.87 74.2698 64.5506 72.7867 61.0643 70.2801C54.4338 65.6286 49.1314 64.0084 45.4207 64.2593C45.4207 64.2593 42.5009 65.6286 36.9349 71.0955C33.3053 74.6599 24.5863 79.9596 19 83.2209Z" fill="#FEFCFF"/>
        <path fill-rule="evenodd" clip-rule="evenodd" d="M45.387 63.7604C49.2604 63.4985 54.6772 65.1886 61.3515 69.8708L61.3562 69.8742C61.9714 70.3165 62.5515 70.7278 63.1074 71.1218C65.6868 72.9504 67.743 74.408 70.3438 76.8714L70.7246 77.232L70.3462 77.5952C63.3775 84.2825 55.0378 89.3626 45.466 90.2323L45.456 90.2333L45.4459 90.2338C35.4372 90.7382 27.8349 89.2196 18.7388 83.6472L18.026 83.2106L18.7479 82.7891C21.538 81.1602 25.1061 79.0248 28.4276 76.8534C31.7585 74.6758 34.8084 72.483 36.5845 70.7388C39.3837 67.9894 41.5245 66.2635 42.9731 65.2214C43.6973 64.7004 44.2486 64.3502 44.6226 64.1285C44.8096 64.0177 44.9523 63.939 45.0501 63.8871C45.099 63.8612 45.1367 63.8419 45.1631 63.8287L45.1943 63.8134L45.2035 63.8089L45.2065 63.8075L45.2076 63.807C45.2078 63.8069 45.2084 63.8066 45.4207 64.2593L45.2076 63.807L45.2934 63.7667L45.387 63.7604ZM45.5541 64.7519C45.5434 64.7575 45.5316 64.7637 45.5187 64.7705C45.4351 64.8148 45.3062 64.8858 45.1325 64.9888C44.7851 65.1947 44.2585 65.5286 43.557 66.0332C42.1541 67.0425 40.052 68.7347 37.2852 71.4522C35.4318 73.2724 32.3073 75.5117 28.9748 77.6904C25.9158 79.6902 22.6535 81.6568 19.9786 83.2274C28.563 88.3259 35.823 89.7162 45.3855 89.2355C54.4765 88.4066 62.4815 83.6482 69.2719 77.2371C66.9061 75.0414 64.9851 73.6793 62.5429 71.9477C61.9846 71.5518 61.399 71.1366 60.7747 70.6878C54.2505 66.1113 49.0987 64.5475 45.5541 64.7519Z" fill="#140000"/>
        <path fill-rule="evenodd" clip-rule="evenodd" d="M45.387 63.7604C49.2604 63.4985 54.6772 65.1886 61.3515 69.8708L61.3562 69.8742C61.9714 70.3165 62.5515 70.7278 63.1074 71.1218C65.6868 72.9504 67.743 74.408 70.3438 76.8714L70.7246 77.232L70.3462 77.5952C63.3775 84.2825 55.0378 89.3626 45.466 90.2323L45.456 90.2333L45.4459 90.2338C35.4372 90.7382 27.8349 89.2196 18.7388 83.6472L18.026 83.2106L18.7479 82.7891C21.538 81.1602 25.1061 79.0248 28.4276 76.8534C31.7585 74.6758 34.8084 72.483 36.5845 70.7388C39.3837 67.9894 41.5245 66.2635 42.9731 65.2214C43.6973 64.7004 44.2486 64.3502 44.6226 64.1285C44.8096 64.0177 44.9523 63.939 45.0501 63.8871C45.099 63.8612 45.1367 63.8419 45.1631 63.8287L45.1943 63.8134L45.2035 63.8089L45.2065 63.8075L45.2076 63.807C45.2078 63.8069 45.2084 63.8066 45.4207 64.2593L45.2076 63.807L45.2934 63.7667L45.387 63.7604ZM45.5541 64.7519C45.5434 64.7575 45.5316 64.7637 45.5187 64.7705C45.4351 64.8148 45.3062 64.8858 45.1325 64.9888C44.7851 65.1947 44.2585 65.5286 43.557 66.0332C42.1541 67.0425 40.052 68.7347 37.2852 71.4522C35.4318 73.2724 32.3073 75.5117 28.9748 77.6904C25.9158 79.6902 22.6535 81.6568 19.9786 83.2274C28.563 88.3259 35.823 89.7162 45.3855 89.2355C54.4765 88.4066 62.4815 83.6482 69.2719 77.2371C66.9061 75.0414 64.9851 73.6793 62.5429 71.9477C61.9846 71.5518 61.399 71.1366 60.7747 70.6878C54.2505 66.1113 49.0987 64.5475 45.5541 64.7519Z" fill="black" fill-opacity="0.2"/>
        <path fill-rule="evenodd" clip-rule="evenodd" d="M45.387 63.7604C49.2604 63.4985 54.6772 65.1886 61.3515 69.8708L61.3562 69.8742C61.9714 70.3165 62.5515 70.7278 63.1074 71.1218C65.6868 72.9504 67.743 74.408 70.3438 76.8714L70.7246 77.232L70.3462 77.5952C63.3775 84.2825 55.0378 89.3626 45.466 90.2323L45.456 90.2333L45.4459 90.2338C35.4372 90.7382 27.8349 89.2196 18.7388 83.6472L18.026 83.2106L18.7479 82.7891C21.538 81.1602 25.1061 79.0248 28.4276 76.8534C31.7585 74.6758 34.8084 72.483 36.5845 70.7388C39.3837 67.9894 41.5245 66.2635 42.9731 65.2214C43.6973 64.7004 44.2486 64.3502 44.6226 64.1285C44.8096 64.0177 44.9523 63.939 45.0501 63.8871C45.099 63.8612 45.1367 63.8419 45.1631 63.8287L45.1943 63.8134L45.2035 63.8089L45.2065 63.8075L45.2076 63.807C45.2078 63.8069 45.2084 63.8066 45.4207 64.2593L45.2076 63.807L45.2934 63.7667L45.387 63.7604ZM45.5541 64.7519C45.5434 64.7575 45.5316 64.7637 45.5187 64.7705C45.4351 64.8148 45.3062 64.8858 45.1325 64.9888C44.7851 65.1947 44.2585 65.5286 43.557 66.0332C42.1541 67.0425 40.052 68.7347 37.2852 71.4522C35.4318 73.2724 32.3073 75.5117 28.9748 77.6904C25.9158 79.6902 22.6535 81.6568 19.9786 83.2274C28.563 88.3259 35.823 89.7162 45.3855 89.2355C54.4765 88.4066 62.4815 83.6482 69.2719 77.2371C66.9061 75.0414 64.9851 73.6793 62.5429 71.9477C61.9846 71.5518 61.399 71.1366 60.7747 70.6878C54.2505 66.1113 49.0987 64.5475 45.5541 64.7519Z" fill="black" fill-opacity="0.2"/>
        <path fill-rule="evenodd" clip-rule="evenodd" d="M45.387 63.7604C49.2604 63.4985 54.6772 65.1886 61.3515 69.8708L61.3562 69.8742C61.9714 70.3165 62.5515 70.7278 63.1074 71.1218C65.6868 72.9504 67.743 74.408 70.3438 76.8714L70.7246 77.232L70.3462 77.5952C63.3775 84.2825 55.0378 89.3626 45.466 90.2323L45.456 90.2333L45.4459 90.2338C35.4372 90.7382 27.8349 89.2196 18.7388 83.6472L18.026 83.2106L18.7479 82.7891C21.538 81.1602 25.1061 79.0248 28.4276 76.8534C31.7585 74.6758 34.8084 72.483 36.5845 70.7388C39.3837 67.9894 41.5245 66.2635 42.9731 65.2214C43.6973 64.7004 44.2486 64.3502 44.6226 64.1285C44.8096 64.0177 44.9523 63.939 45.0501 63.8871C45.099 63.8612 45.1367 63.8419 45.1631 63.8287L45.1943 63.8134L45.2035 63.8089L45.2065 63.8075L45.2076 63.807C45.2078 63.8069 45.2084 63.8066 45.4207 64.2593L45.2076 63.807L45.2934 63.7667L45.387 63.7604ZM45.5541 64.7519C45.5434 64.7575 45.5316 64.7637 45.5187 64.7705C45.4351 64.8148 45.3062 64.8858 45.1325 64.9888C44.7851 65.1947 44.2585 65.5286 43.557 66.0332C42.1541 67.0425 40.052 68.7347 37.2852 71.4522C35.4318 73.2724 32.3073 75.5117 28.9748 77.6904C25.9158 79.6902 22.6535 81.6568 19.9786 83.2274C28.563 88.3259 35.823 89.7162 45.3855 89.2355C54.4765 88.4066 62.4815 83.6482 69.2719 77.2371C66.9061 75.0414 64.9851 73.6793 62.5429 71.9477C61.9846 71.5518 61.399 71.1366 60.7747 70.6878C54.2505 66.1113 49.0987 64.5475 45.5541 64.7519Z" fill="black" fill-opacity="0.2"/>
        <path d="M56.0017 71.8644C56.0047 70.0062 55.7626 68.1573 55.2829 66.3755C52.5927 64.8972 49.6146 64.164 46.6078 64.2397C46.6078 64.2397 44.2454 64.4628 40.0002 68.7344C39.9104 69.5244 40.0028 71.1644 40.002 71.9605C40.002 79.2969 43.5769 85.2344 47.997 85.2344C52.4171 85.2344 56.0017 79.2008 56.0017 71.8644Z" fill="#FEFCFF"/>
        <path d="M56.0017 71.3644C56.0047 69.5062 55.7626 67.6573 55.2828 65.8755C52.5926 64.3972 49.6145 63.664 46.6077 63.7397C46.6077 63.7397 44.2453 63.9628 40 68.2344C39.9102 69.0244 40.0026 70.6644 40.0018 71.4605C40.0018 78.7969 43.5767 84.7344 47.9969 84.7344C52.417 84.7344 56.0017 78.7008 56.0017 71.3644Z" fill="#FEFCFF"/>
        <path d="M56.0017 71.3644C56.0047 69.5062 55.7626 67.6573 55.2828 65.8755C52.5926 64.3972 49.6145 63.664 46.6077 63.7397C46.6077 63.7397 44.2453 63.9628 40 68.2344C39.9102 69.0244 40.0026 70.6644 40.0018 71.4605C40.0018 78.7969 43.5767 84.7344 47.9969 84.7344C52.417 84.7344 56.0017 78.7008 56.0017 71.3644Z" stroke="#140000" stroke-miterlimit="10"/>
        <path d="M56.0017 71.3644C56.0047 69.5062 55.7626 67.6573 55.2828 65.8755C52.5926 64.3972 49.6145 63.664 46.6077 63.7397C46.6077 63.7397 44.2453 63.9628 40 68.2344C39.9102 69.0244 40.0026 70.6644 40.0018 71.4605C40.0018 78.7969 43.5767 84.7344 47.9969 84.7344C52.417 84.7344 56.0017 78.7008 56.0017 71.3644Z" stroke="black" stroke-opacity="0.2" stroke-miterlimit="10"/>
        <path d="M56.0017 71.3644C56.0047 69.5062 55.7626 67.6573 55.2828 65.8755C52.5926 64.3972 49.6145 63.664 46.6077 63.7397C46.6077 63.7397 44.2453 63.9628 40 68.2344C39.9102 69.0244 40.0026 70.6644 40.0018 71.4605C40.0018 78.7969 43.5767 84.7344 47.9969 84.7344C52.417 84.7344 56.0017 78.7008 56.0017 71.3644Z" stroke="black" stroke-opacity="0.2" stroke-miterlimit="10"/>
        <path d="M56.0017 71.3644C56.0047 69.5062 55.7626 67.6573 55.2828 65.8755C52.5926 64.3972 49.6145 63.664 46.6077 63.7397C46.6077 63.7397 44.2453 63.9628 40 68.2344C39.9102 69.0244 40.0026 70.6644 40.0018 71.4605C40.0018 78.7969 43.5767 84.7344 47.9969 84.7344C52.417 84.7344 56.0017 78.7008 56.0017 71.3644Z" stroke="black" stroke-opacity="0.2" stroke-miterlimit="10"/>
        <path d="M43.0653 51.2344C43.0653 51.2344 43.0653 58.6187 42.2451 65.4691C41.4249 72.3195 42.5185 79.6937 47.7445 80.2175C52.9705 80.7414 52.1398 68.8943 51.593 64.1494C51.2685 61.1722 51.2685 58.1707 51.593 55.1935L43.0653 51.2344Z" fill="#FEFCFF"/>
        <mask id="mask0_25_437" style="mask-type:luminance" maskUnits="userSpaceOnUse" x="42" y="51" width="11" height="30">
            <path d="M43.6252 51.2695C43.6252 51.2695 43.6252 58.7328 42.8311 65.6564C42.0369 72.5801 43.0958 80.0331 48.1561 80.5626C53.2165 81.0921 52.4121 69.1182 51.8827 64.3226C51.5685 61.3136 51.5685 58.28 51.8827 55.271L43.6252 51.2695Z" fill="white"/>
        </mask>
        <g mask="url(#mask0_25_437)">
            <g style="mix-blend-mode:multiply" opacity="0.5">
                <path d="M42.6719 67.262L51.6624 58.5463C51.6624 58.2714 51.6624 58.0067 51.6624 57.7623L49.8297 54.3514L43.5882 51.2969C43.5882 51.2969 43.5882 58.7601 42.7941 65.6838C42.7635 66.1827 42.7126 66.7223 42.6719 67.262Z" fill="#C3FF28"/>
            </g>
        </g>
        <path fill-rule="evenodd" clip-rule="evenodd" d="M42.5653 50.451L52.1289 54.891L52.0901 55.2477C51.7696 58.1884 51.7695 61.153 52.0899 64.0937C52.3641 66.4739 52.7141 70.6665 52.3307 74.213C52.1397 75.9796 51.7614 77.6441 51.0593 78.8472C50.705 79.4543 50.2564 79.9643 49.6881 80.302C49.1136 80.6434 48.4468 80.7905 47.6946 80.7151C44.7909 80.424 43.0997 78.2154 42.2483 75.3586C41.397 72.5021 41.3343 68.8699 41.7486 65.4096C42.1565 62.0032 42.3608 58.4594 42.4631 55.7639C42.5142 54.4169 42.5397 53.2835 42.5525 52.4872C42.5589 52.0891 42.5621 51.7753 42.5637 51.5613C42.5645 51.4543 42.5649 51.3723 42.5651 51.3172L42.5652 51.2549L42.5653 51.2344L42.5653 50.451ZM43.5593 52.015C43.5575 52.1597 43.5553 52.3229 43.5524 52.5032C43.5395 53.3056 43.5138 54.4464 43.4624 55.8018C43.3596 58.511 43.1539 62.0846 42.7415 65.5285C42.3357 68.9186 42.4097 72.3987 43.2066 75.073C44.0035 77.7468 45.472 79.4873 47.7944 79.72C48.3487 79.7756 48.7991 79.667 49.1773 79.4423C49.5617 79.2138 49.9014 78.8472 50.1956 78.3431C50.7904 77.3239 51.1502 75.8283 51.3364 74.1055C51.7074 70.6739 51.3688 66.5716 51.0963 64.2066L51.096 64.2035C50.7805 61.3094 50.7681 58.3926 51.0586 55.4966L43.5593 52.015Z" fill="#140000"/>
        <path fill-rule="evenodd" clip-rule="evenodd" d="M42.5653 50.451L52.1289 54.891L52.0901 55.2477C51.7696 58.1884 51.7695 61.153 52.0899 64.0937C52.3641 66.4739 52.7141 70.6665 52.3307 74.213C52.1397 75.9796 51.7614 77.6441 51.0593 78.8472C50.705 79.4543 50.2564 79.9643 49.6881 80.302C49.1136 80.6434 48.4468 80.7905 47.6946 80.7151C44.7909 80.424 43.0997 78.2154 42.2483 75.3586C41.397 72.5021 41.3343 68.8699 41.7486 65.4096C42.1565 62.0032 42.3608 58.4594 42.4631 55.7639C42.5142 54.4169 42.5397 53.2835 42.5525 52.4872C42.5589 52.0891 42.5621 51.7753 42.5637 51.5613C42.5645 51.4543 42.5649 51.3723 42.5651 51.3172L42.5652 51.2549L42.5653 51.2344L42.5653 50.451ZM43.5593 52.015C43.5575 52.1597 43.5553 52.3229 43.5524 52.5032C43.5395 53.3056 43.5138 54.4464 43.4624 55.8018C43.3596 58.511 43.1539 62.0846 42.7415 65.5285C42.3357 68.9186 42.4097 72.3987 43.2066 75.073C44.0035 77.7468 45.472 79.4873 47.7944 79.72C48.3487 79.7756 48.7991 79.667 49.1773 79.4423C49.5617 79.2138 49.9014 78.8472 50.1956 78.3431C50.7904 77.3239 51.1502 75.8283 51.3364 74.1055C51.7074 70.6739 51.3688 66.5716 51.0963 64.2066L51.096 64.2035C50.7805 61.3094 50.7681 58.3926 51.0586 55.4966L43.5593 52.015Z" fill="black" fill-opacity="0.2"/>
        <path fill-rule="evenodd" clip-rule="evenodd" d="M42.5653 50.451L52.1289 54.891L52.0901 55.2477C51.7696 58.1884 51.7695 61.153 52.0899 64.0937C52.3641 66.4739 52.7141 70.6665 52.3307 74.213C52.1397 75.9796 51.7614 77.6441 51.0593 78.8472C50.705 79.4543 50.2564 79.9643 49.6881 80.302C49.1136 80.6434 48.4468 80.7905 47.6946 80.7151C44.7909 80.424 43.0997 78.2154 42.2483 75.3586C41.397 72.5021 41.3343 68.8699 41.7486 65.4096C42.1565 62.0032 42.3608 58.4594 42.4631 55.7639C42.5142 54.4169 42.5397 53.2835 42.5525 52.4872C42.5589 52.0891 42.5621 51.7753 42.5637 51.5613C42.5645 51.4543 42.5649 51.3723 42.5651 51.3172L42.5652 51.2549L42.5653 51.2344L42.5653 50.451ZM43.5593 52.015C43.5575 52.1597 43.5553 52.3229 43.5524 52.5032C43.5395 53.3056 43.5138 54.4464 43.4624 55.8018C43.3596 58.511 43.1539 62.0846 42.7415 65.5285C42.3357 68.9186 42.4097 72.3987 43.2066 75.073C44.0035 77.7468 45.472 79.4873 47.7944 79.72C48.3487 79.7756 48.7991 79.667 49.1773 79.4423C49.5617 79.2138 49.9014 78.8472 50.1956 78.3431C50.7904 77.3239 51.1502 75.8283 51.3364 74.1055C51.7074 70.6739 51.3688 66.5716 51.0963 64.2066L51.096 64.2035C50.7805 61.3094 50.7681 58.3926 51.0586 55.4966L43.5593 52.015Z" fill="black" fill-opacity="0.2"/>
        <path fill-rule="evenodd" clip-rule="evenodd" d="M42.5653 50.451L52.1289 54.891L52.0901 55.2477C51.7696 58.1884 51.7695 61.153 52.0899 64.0937C52.3641 66.4739 52.7141 70.6665 52.3307 74.213C52.1397 75.9796 51.7614 77.6441 51.0593 78.8472C50.705 79.4543 50.2564 79.9643 49.6881 80.302C49.1136 80.6434 48.4468 80.7905 47.6946 80.7151C44.7909 80.424 43.0997 78.2154 42.2483 75.3586C41.397 72.5021 41.3343 68.8699 41.7486 65.4096C42.1565 62.0032 42.3608 58.4594 42.4631 55.7639C42.5142 54.4169 42.5397 53.2835 42.5525 52.4872C42.5589 52.0891 42.5621 51.7753 42.5637 51.5613C42.5645 51.4543 42.5649 51.3723 42.5651 51.3172L42.5652 51.2549L42.5653 51.2344L42.5653 50.451ZM43.5593 52.015C43.5575 52.1597 43.5553 52.3229 43.5524 52.5032C43.5395 53.3056 43.5138 54.4464 43.4624 55.8018C43.3596 58.511 43.1539 62.0846 42.7415 65.5285C42.3357 68.9186 42.4097 72.3987 43.2066 75.073C44.0035 77.7468 45.472 79.4873 47.7944 79.72C48.3487 79.7756 48.7991 79.667 49.1773 79.4423C49.5617 79.2138 49.9014 78.8472 50.1956 78.3431C50.7904 77.3239 51.1502 75.8283 51.3364 74.1055C51.7074 70.6739 51.3688 66.5716 51.0963 64.2066L51.096 64.2035C50.7805 61.3094 50.7681 58.3926 51.0586 55.4966L43.5593 52.015Z" fill="black" fill-opacity="0.2"/>
        <path d="M61.9232 18.2344C61.9232 18.2344 62.4378 21.6903 53.6413 25.9493C44.8449 30.2082 40.4417 33.654 39.6699 37.6385C38.8981 41.623 38.6309 43.2291 38.6309 43.2291C38.6309 43.2291 36.8202 39.4987 33.456 41.3588C30.0918 43.2189 33.1987 50.4052 36.3057 50.6695C39.4126 50.9338 40.1844 49.8665 40.1844 49.8665C40.1844 49.8665 50.2771 60.2344 56.2238 60.2344C62.1706 60.2344 64.5058 54.3897 65.802 43.9711C67.0586 33.9691 61.9232 18.2344 61.9232 18.2344Z" fill="#FEFCFF"/>
        <mask id="mask1_25_437" style="mask-type:luminance" maskUnits="userSpaceOnUse" x="30" y="17" width="36" height="44">
            <path d="M61.7444 17.9922C61.7444 17.9922 62.2739 21.454 53.2222 25.7202C44.1706 29.9864 39.6397 33.438 38.8455 37.4293C38.0513 41.4205 37.7764 43.0293 37.7764 43.0293C37.7764 43.0293 35.9132 39.2925 32.4513 41.1558C28.9895 43.0191 32.1866 50.2176 35.3837 50.4823C38.5808 50.7471 39.375 49.678 39.375 49.678C39.375 49.678 49.7604 60.0634 55.8797 60.0634C61.999 60.0634 64.4019 54.2089 65.7357 43.7725C67.0288 33.7536 61.7444 17.9922 61.7444 17.9922Z" fill="white"/>
        </mask>
        <g mask="url(#mask1_25_437)">
            <g style="mix-blend-mode:multiply" opacity="0.5">
                <path d="M41.7575 39.3515C42.0804 35.9976 43.2738 32.7861 45.2193 30.0352C41.4215 32.5195 39.3546 34.8613 38.8455 37.4271C38.0412 41.4286 37.7764 43.0271 37.7764 43.0271C37.7764 43.0271 35.9132 39.2904 32.4513 41.1537C28.9895 43.017 32.1866 50.2155 35.3837 50.4802C38.5808 50.745 39.375 49.6759 39.375 49.6759C39.375 49.6759 49.7604 60.0613 55.8797 60.0613C54.063 59.1585 52.3551 58.0517 50.7888 56.7624C47.1641 54.1152 41.4623 45.9697 41.7575 39.3515Z" fill="#C3FF28"/>
            </g>
        </g>
        <path fill-rule="evenodd" clip-rule="evenodd" d="M62.3986 18.0792L61.9232 18.2344C62.3986 18.0792 62.3985 18.0791 62.3986 18.0792L62.3989 18.0802L62.4026 18.0917L62.4139 18.1267C62.4238 18.1574 62.4384 18.2029 62.4572 18.2624C62.495 18.3815 62.55 18.5569 62.6195 18.7834C62.7584 19.2363 62.9551 19.8935 63.1871 20.713C63.651 22.3518 64.2564 24.6414 64.8224 27.2458C65.951 32.4377 66.9377 38.9427 66.2981 44.0334C65.6491 49.2496 64.7335 53.3957 63.197 56.2469C62.4246 57.6804 61.4843 58.8078 60.3226 59.5755C59.1565 60.3461 57.7973 60.7344 56.2238 60.7344C54.61 60.7344 52.7742 60.0375 50.9695 59.0534C49.1524 58.0624 47.3084 56.7475 45.6633 55.4421C44.0164 54.1353 42.5585 52.8298 41.5128 51.8516C40.9896 51.3623 40.569 50.9542 40.2787 50.6681C40.234 50.624 40.1924 50.5828 40.154 50.5447C40.0102 50.6389 39.8269 50.7384 39.5967 50.831C38.9273 51.1002 37.8761 51.3049 36.2633 51.1677C35.3086 51.0865 34.4238 50.4866 33.7073 49.7019C32.9823 48.9079 32.3758 47.8679 31.9839 46.7824C31.593 45.6998 31.402 44.5341 31.55 43.4909C31.6997 42.4359 32.2039 41.4797 33.2141 40.9212C34.1385 40.4101 34.9903 40.2665 35.7518 40.3709C36.507 40.4744 37.1309 40.8159 37.6178 41.2063C37.9061 41.4374 38.1511 41.6894 38.3528 41.9283C38.3581 41.899 38.3635 41.8691 38.369 41.8387C38.5327 40.937 38.7928 39.5374 39.179 37.5434C39.5955 35.3933 40.9838 33.4422 43.3285 31.5109C45.6715 29.5809 49.0139 27.6342 53.4234 25.4992C57.7761 23.3918 59.7653 21.511 60.6704 20.2093C61.1216 19.5604 61.3047 19.0539 61.3787 18.7296C61.4159 18.5667 61.4262 18.4474 61.4284 18.3761C61.4295 18.3403 61.4285 18.3164 61.4278 18.3049C61.4275 18.2992 61.4272 18.2965 61.4272 18.297L61.4276 18.3001L61.428 18.3034L61.4278 18.3049L61.4285 18.3067C61.4285 18.3069 61.4286 18.3071 61.4377 18.3059L62.3986 18.0792ZM38.1811 43.4474L38.1792 43.4434L38.1669 43.4197C38.1554 43.3977 38.1371 43.3637 38.1122 43.32C38.0623 43.2324 37.9862 43.1067 37.8846 42.9601C37.6798 42.6647 37.3797 42.2971 36.9923 41.9865C36.606 41.6767 36.1465 41.4344 35.6159 41.3616C35.0917 41.2897 34.4556 41.3774 33.6979 41.7963C33.026 42.1679 32.657 42.8075 32.5401 43.6314C32.4216 44.467 32.5707 45.4632 32.9244 46.4428C33.2771 47.4194 33.8196 48.3418 34.4458 49.0276C35.0806 49.7229 35.7493 50.1204 36.3481 50.1713C37.8422 50.2984 38.7304 50.1016 39.2236 49.9032C39.4703 49.804 39.6219 49.703 39.7045 49.6375C39.7461 49.6045 39.771 49.5798 39.7823 49.5679C39.7843 49.5658 39.7858 49.5641 39.787 49.5628L40.1278 49.0915L40.5427 49.5177L40.5442 49.5192L40.5492 49.5244L40.5702 49.5458C40.5889 49.5648 40.617 49.5933 40.6541 49.6307C40.7283 49.7054 40.8383 49.8155 40.9807 49.9559C41.2656 50.2368 41.6799 50.6387 42.1959 51.1213C43.2284 52.0871 44.6653 53.3736 46.2849 54.6588C47.9064 55.9454 49.7005 57.2224 51.4483 58.1754C53.2085 59.1353 54.8643 59.7344 56.2238 59.7344C57.6238 59.7344 58.7865 59.392 59.7713 58.7412C60.7604 58.0875 61.6 57.1026 62.3167 55.7725C63.7585 53.0969 64.6586 49.1115 65.3058 43.9093C65.9229 38.9981 64.9703 32.6341 63.8453 27.4582C63.2846 24.8786 62.6846 22.6095 62.2249 20.9854C62.1256 20.6344 62.0328 20.3137 61.9484 20.0265C61.8277 20.2605 61.6777 20.5124 61.4915 20.7802C60.4547 22.2712 58.303 24.2477 53.8592 26.3993C49.4723 28.5233 46.2148 30.429 43.9643 32.2828C41.7153 34.1352 40.5161 35.8993 40.1608 37.7336C39.7752 39.7241 39.5158 41.1198 39.353 42.0173C39.2715 42.466 39.2142 42.7901 39.1773 43.0017C39.1589 43.1075 39.1455 43.1852 39.1368 43.2363L39.1272 43.2931L39.1243 43.3102L38.8666 44.8595L38.1816 43.4483L38.1811 43.4474Z" fill="#140000"/>
        <path fill-rule="evenodd" clip-rule="evenodd" d="M62.3986 18.0792L61.9232 18.2344C62.3986 18.0792 62.3985 18.0791 62.3986 18.0792L62.3989 18.0802L62.4026 18.0917L62.4139 18.1267C62.4238 18.1574 62.4384 18.2029 62.4572 18.2624C62.495 18.3815 62.55 18.5569 62.6195 18.7834C62.7584 19.2363 62.9551 19.8935 63.1871 20.713C63.651 22.3518 64.2564 24.6414 64.8224 27.2458C65.951 32.4377 66.9377 38.9427 66.2981 44.0334C65.6491 49.2496 64.7335 53.3957 63.197 56.2469C62.4246 57.6804 61.4843 58.8078 60.3226 59.5755C59.1565 60.3461 57.7973 60.7344 56.2238 60.7344C54.61 60.7344 52.7742 60.0375 50.9695 59.0534C49.1524 58.0624 47.3084 56.7475 45.6633 55.4421C44.0164 54.1353 42.5585 52.8298 41.5128 51.8516C40.9896 51.3623 40.569 50.9542 40.2787 50.6681C40.234 50.624 40.1924 50.5828 40.154 50.5447C40.0102 50.6389 39.8269 50.7384 39.5967 50.831C38.9273 51.1002 37.8761 51.3049 36.2633 51.1677C35.3086 51.0865 34.4238 50.4866 33.7073 49.7019C32.9823 48.9079 32.3758 47.8679 31.9839 46.7824C31.593 45.6998 31.402 44.5341 31.55 43.4909C31.6997 42.4359 32.2039 41.4797 33.2141 40.9212C34.1385 40.4101 34.9903 40.2665 35.7518 40.3709C36.507 40.4744 37.1309 40.8159 37.6178 41.2063C37.9061 41.4374 38.1511 41.6894 38.3528 41.9283C38.3581 41.899 38.3635 41.8691 38.369 41.8387C38.5327 40.937 38.7928 39.5374 39.179 37.5434C39.5955 35.3933 40.9838 33.4422 43.3285 31.5109C45.6715 29.5809 49.0139 27.6342 53.4234 25.4992C57.7761 23.3918 59.7653 21.511 60.6704 20.2093C61.1216 19.5604 61.3047 19.0539 61.3787 18.7296C61.4159 18.5667 61.4262 18.4474 61.4284 18.3761C61.4295 18.3403 61.4285 18.3164 61.4278 18.3049C61.4275 18.2992 61.4272 18.2965 61.4272 18.297L61.4276 18.3001L61.428 18.3034L61.4278 18.3049L61.4285 18.3067C61.4285 18.3069 61.4286 18.3071 61.4377 18.3059L62.3986 18.0792ZM38.1811 43.4474L38.1792 43.4434L38.1669 43.4197C38.1554 43.3977 38.1371 43.3637 38.1122 43.32C38.0623 43.2324 37.9862 43.1067 37.8846 42.9601C37.6798 42.6647 37.3797 42.2971 36.9923 41.9865C36.606 41.6767 36.1465 41.4344 35.6159 41.3616C35.0917 41.2897 34.4556 41.3774 33.6979 41.7963C33.026 42.1679 32.657 42.8075 32.5401 43.6314C32.4216 44.467 32.5707 45.4632 32.9244 46.4428C33.2771 47.4194 33.8196 48.3418 34.4458 49.0276C35.0806 49.7229 35.7493 50.1204 36.3481 50.1713C37.8422 50.2984 38.7304 50.1016 39.2236 49.9032C39.4703 49.804 39.6219 49.703 39.7045 49.6375C39.7461 49.6045 39.771 49.5798 39.7823 49.5679C39.7843 49.5658 39.7858 49.5641 39.787 49.5628L40.1278 49.0915L40.5427 49.5177L40.5442 49.5192L40.5492 49.5244L40.5702 49.5458C40.5889 49.5648 40.617 49.5933 40.6541 49.6307C40.7283 49.7054 40.8383 49.8155 40.9807 49.9559C41.2656 50.2368 41.6799 50.6387 42.1959 51.1213C43.2284 52.0871 44.6653 53.3736 46.2849 54.6588C47.9064 55.9454 49.7005 57.2224 51.4483 58.1754C53.2085 59.1353 54.8643 59.7344 56.2238 59.7344C57.6238 59.7344 58.7865 59.392 59.7713 58.7412C60.7604 58.0875 61.6 57.1026 62.3167 55.7725C63.7585 53.0969 64.6586 49.1115 65.3058 43.9093C65.9229 38.9981 64.9703 32.6341 63.8453 27.4582C63.2846 24.8786 62.6846 22.6095 62.2249 20.9854C62.1256 20.6344 62.0328 20.3137 61.9484 20.0265C61.8277 20.2605 61.6777 20.5124 61.4915 20.7802C60.4547 22.2712 58.303 24.2477 53.8592 26.3993C49.4723 28.5233 46.2148 30.429 43.9643 32.2828C41.7153 34.1352 40.5161 35.8993 40.1608 37.7336C39.7752 39.7241 39.5158 41.1198 39.353 42.0173C39.2715 42.466 39.2142 42.7901 39.1773 43.0017C39.1589 43.1075 39.1455 43.1852 39.1368 43.2363L39.1272 43.2931L39.1243 43.3102L38.8666 44.8595L38.1816 43.4483L38.1811 43.4474Z" fill="black" fill-opacity="0.2"/>
        <path fill-rule="evenodd" clip-rule="evenodd" d="M62.3986 18.0792L61.9232 18.2344C62.3986 18.0792 62.3985 18.0791 62.3986 18.0792L62.3989 18.0802L62.4026 18.0917L62.4139 18.1267C62.4238 18.1574 62.4384 18.2029 62.4572 18.2624C62.495 18.3815 62.55 18.5569 62.6195 18.7834C62.7584 19.2363 62.9551 19.8935 63.1871 20.713C63.651 22.3518 64.2564 24.6414 64.8224 27.2458C65.951 32.4377 66.9377 38.9427 66.2981 44.0334C65.6491 49.2496 64.7335 53.3957 63.197 56.2469C62.4246 57.6804 61.4843 58.8078 60.3226 59.5755C59.1565 60.3461 57.7973 60.7344 56.2238 60.7344C54.61 60.7344 52.7742 60.0375 50.9695 59.0534C49.1524 58.0624 47.3084 56.7475 45.6633 55.4421C44.0164 54.1353 42.5585 52.8298 41.5128 51.8516C40.9896 51.3623 40.569 50.9542 40.2787 50.6681C40.234 50.624 40.1924 50.5828 40.154 50.5447C40.0102 50.6389 39.8269 50.7384 39.5967 50.831C38.9273 51.1002 37.8761 51.3049 36.2633 51.1677C35.3086 51.0865 34.4238 50.4866 33.7073 49.7019C32.9823 48.9079 32.3758 47.8679 31.9839 46.7824C31.593 45.6998 31.402 44.5341 31.55 43.4909C31.6997 42.4359 32.2039 41.4797 33.2141 40.9212C34.1385 40.4101 34.9903 40.2665 35.7518 40.3709C36.507 40.4744 37.1309 40.8159 37.6178 41.2063C37.9061 41.4374 38.1511 41.6894 38.3528 41.9283C38.3581 41.899 38.3635 41.8691 38.369 41.8387C38.5327 40.937 38.7928 39.5374 39.179 37.5434C39.5955 35.3933 40.9838 33.4422 43.3285 31.5109C45.6715 29.5809 49.0139 27.6342 53.4234 25.4992C57.7761 23.3918 59.7653 21.511 60.6704 20.2093C61.1216 19.5604 61.3047 19.0539 61.3787 18.7296C61.4159 18.5667 61.4262 18.4474 61.4284 18.3761C61.4295 18.3403 61.4285 18.3164 61.4278 18.3049C61.4275 18.2992 61.4272 18.2965 61.4272 18.297L61.4276 18.3001L61.428 18.3034L61.4278 18.3049L61.4285 18.3067C61.4285 18.3069 61.4286 18.3071 61.4377 18.3059L62.3986 18.0792ZM38.1811 43.4474L38.1792 43.4434L38.1669 43.4197C38.1554 43.3977 38.1371 43.3637 38.1122 43.32C38.0623 43.2324 37.9862 43.1067 37.8846 42.9601C37.6798 42.6647 37.3797 42.2971 36.9923 41.9865C36.606 41.6767 36.1465 41.4344 35.6159 41.3616C35.0917 41.2897 34.4556 41.3774 33.6979 41.7963C33.026 42.1679 32.657 42.8075 32.5401 43.6314C32.4216 44.467 32.5707 45.4632 32.9244 46.4428C33.2771 47.4194 33.8196 48.3418 34.4458 49.0276C35.0806 49.7229 35.7493 50.1204 36.3481 50.1713C37.8422 50.2984 38.7304 50.1016 39.2236 49.9032C39.4703 49.804 39.6219 49.703 39.7045 49.6375C39.7461 49.6045 39.771 49.5798 39.7823 49.5679C39.7843 49.5658 39.7858 49.5641 39.787 49.5628L40.1278 49.0915L40.5427 49.5177L40.5442 49.5192L40.5492 49.5244L40.5702 49.5458C40.5889 49.5648 40.617 49.5933 40.6541 49.6307C40.7283 49.7054 40.8383 49.8155 40.9807 49.9559C41.2656 50.2368 41.6799 50.6387 42.1959 51.1213C43.2284 52.0871 44.6653 53.3736 46.2849 54.6588C47.9064 55.9454 49.7005 57.2224 51.4483 58.1754C53.2085 59.1353 54.8643 59.7344 56.2238 59.7344C57.6238 59.7344 58.7865 59.392 59.7713 58.7412C60.7604 58.0875 61.6 57.1026 62.3167 55.7725C63.7585 53.0969 64.6586 49.1115 65.3058 43.9093C65.9229 38.9981 64.9703 32.6341 63.8453 27.4582C63.2846 24.8786 62.6846 22.6095 62.2249 20.9854C62.1256 20.6344 62.0328 20.3137 61.9484 20.0265C61.8277 20.2605 61.6777 20.5124 61.4915 20.7802C60.4547 22.2712 58.303 24.2477 53.8592 26.3993C49.4723 28.5233 46.2148 30.429 43.9643 32.2828C41.7153 34.1352 40.5161 35.8993 40.1608 37.7336C39.7752 39.7241 39.5158 41.1198 39.353 42.0173C39.2715 42.466 39.2142 42.7901 39.1773 43.0017C39.1589 43.1075 39.1455 43.1852 39.1368 43.2363L39.1272 43.2931L39.1243 43.3102L38.8666 44.8595L38.1816 43.4483L38.1811 43.4474Z" fill="black" fill-opacity="0.2"/>
        <path fill-rule="evenodd" clip-rule="evenodd" d="M62.3986 18.0792L61.9232 18.2344C62.3986 18.0792 62.3985 18.0791 62.3986 18.0792L62.3989 18.0802L62.4026 18.0917L62.4139 18.1267C62.4238 18.1574 62.4384 18.2029 62.4572 18.2624C62.495 18.3815 62.55 18.5569 62.6195 18.7834C62.7584 19.2363 62.9551 19.8935 63.1871 20.713C63.651 22.3518 64.2564 24.6414 64.8224 27.2458C65.951 32.4377 66.9377 38.9427 66.2981 44.0334C65.6491 49.2496 64.7335 53.3957 63.197 56.2469C62.4246 57.6804 61.4843 58.8078 60.3226 59.5755C59.1565 60.3461 57.7973 60.7344 56.2238 60.7344C54.61 60.7344 52.7742 60.0375 50.9695 59.0534C49.1524 58.0624 47.3084 56.7475 45.6633 55.4421C44.0164 54.1353 42.5585 52.8298 41.5128 51.8516C40.9896 51.3623 40.569 50.9542 40.2787 50.6681C40.234 50.624 40.1924 50.5828 40.154 50.5447C40.0102 50.6389 39.8269 50.7384 39.5967 50.831C38.9273 51.1002 37.8761 51.3049 36.2633 51.1677C35.3086 51.0865 34.4238 50.4866 33.7073 49.7019C32.9823 48.9079 32.3758 47.8679 31.9839 46.7824C31.593 45.6998 31.402 44.5341 31.55 43.4909C31.6997 42.4359 32.2039 41.4797 33.2141 40.9212C34.1385 40.4101 34.9903 40.2665 35.7518 40.3709C36.507 40.4744 37.1309 40.8159 37.6178 41.2063C37.9061 41.4374 38.1511 41.6894 38.3528 41.9283C38.3581 41.899 38.3635 41.8691 38.369 41.8387C38.5327 40.937 38.7928 39.5374 39.179 37.5434C39.5955 35.3933 40.9838 33.4422 43.3285 31.5109C45.6715 29.5809 49.0139 27.6342 53.4234 25.4992C57.7761 23.3918 59.7653 21.511 60.6704 20.2093C61.1216 19.5604 61.3047 19.0539 61.3787 18.7296C61.4159 18.5667 61.4262 18.4474 61.4284 18.3761C61.4295 18.3403 61.4285 18.3164 61.4278 18.3049C61.4275 18.2992 61.4272 18.2965 61.4272 18.297L61.4276 18.3001L61.428 18.3034L61.4278 18.3049L61.4285 18.3067C61.4285 18.3069 61.4286 18.3071 61.4377 18.3059L62.3986 18.0792ZM38.1811 43.4474L38.1792 43.4434L38.1669 43.4197C38.1554 43.3977 38.1371 43.3637 38.1122 43.32C38.0623 43.2324 37.9862 43.1067 37.8846 42.9601C37.6798 42.6647 37.3797 42.2971 36.9923 41.9865C36.606 41.6767 36.1465 41.4344 35.6159 41.3616C35.0917 41.2897 34.4556 41.3774 33.6979 41.7963C33.026 42.1679 32.657 42.8075 32.5401 43.6314C32.4216 44.467 32.5707 45.4632 32.9244 46.4428C33.2771 47.4194 33.8196 48.3418 34.4458 49.0276C35.0806 49.7229 35.7493 50.1204 36.3481 50.1713C37.8422 50.2984 38.7304 50.1016 39.2236 49.9032C39.4703 49.804 39.6219 49.703 39.7045 49.6375C39.7461 49.6045 39.771 49.5798 39.7823 49.5679C39.7843 49.5658 39.7858 49.5641 39.787 49.5628L40.1278 49.0915L40.5427 49.5177L40.5442 49.5192L40.5492 49.5244L40.5702 49.5458C40.5889 49.5648 40.617 49.5933 40.6541 49.6307C40.7283 49.7054 40.8383 49.8155 40.9807 49.9559C41.2656 50.2368 41.6799 50.6387 42.1959 51.1213C43.2284 52.0871 44.6653 53.3736 46.2849 54.6588C47.9064 55.9454 49.7005 57.2224 51.4483 58.1754C53.2085 59.1353 54.8643 59.7344 56.2238 59.7344C57.6238 59.7344 58.7865 59.392 59.7713 58.7412C60.7604 58.0875 61.6 57.1026 62.3167 55.7725C63.7585 53.0969 64.6586 49.1115 65.3058 43.9093C65.9229 38.9981 64.9703 32.6341 63.8453 27.4582C63.2846 24.8786 62.6846 22.6095 62.2249 20.9854C62.1256 20.6344 62.0328 20.3137 61.9484 20.0265C61.8277 20.2605 61.6777 20.5124 61.4915 20.7802C60.4547 22.2712 58.303 24.2477 53.8592 26.3993C49.4723 28.5233 46.2148 30.429 43.9643 32.2828C41.7153 34.1352 40.5161 35.8993 40.1608 37.7336C39.7752 39.7241 39.5158 41.1198 39.353 42.0173C39.2715 42.466 39.2142 42.7901 39.1773 43.0017C39.1589 43.1075 39.1455 43.1852 39.1368 43.2363L39.1272 43.2931L39.1243 43.3102L38.8666 44.8595L38.1816 43.4483L38.1811 43.4474Z" fill="black" fill-opacity="0.2"/>
        <path fill-rule="evenodd" clip-rule="evenodd" d="M60.17 33.7639C60.4298 33.8575 60.5646 34.1439 60.4711 34.4037C60.2061 35.14 60.0961 35.9251 60.1484 36.7078C60.2007 37.4903 60.414 38.2525 60.7742 38.945C61.023 39.4199 61.2541 39.8445 61.4602 40.2233C61.7888 40.8271 62.0538 41.3141 62.2258 41.7016C62.3693 42.0247 62.4769 42.3377 62.4967 42.6411C62.5176 42.9613 62.4394 43.252 62.2541 43.515C62.0795 43.7981 61.8524 44.0448 61.585 44.2411C61.3122 44.4415 61.0027 44.5854 60.6743 44.6644C60.3458 44.7433 60.0052 44.7557 59.672 44.7006C59.3388 44.6455 59.0199 44.5242 58.7336 44.344C58.4999 44.1969 58.4298 43.8882 58.5769 43.6545C58.724 43.4208 59.0327 43.3506 59.2664 43.4977C59.4405 43.6073 59.6338 43.6807 59.835 43.714C60.0363 43.7472 60.242 43.7398 60.4405 43.6921C60.6391 43.6444 60.8269 43.5572 60.9931 43.4351C61.1594 43.313 61.301 43.1584 61.4093 42.9797C61.4165 42.9678 61.4242 42.9562 61.4323 42.945C61.4856 42.8716 61.5054 42.8073 61.4988 42.7061C61.4907 42.5807 61.4405 42.3971 61.3118 42.1073C61.1542 41.7522 60.9217 41.3256 60.6142 40.7613C60.4065 40.38 60.1644 39.9359 59.8881 39.4085L59.8874 39.4072C59.463 38.5915 59.2121 37.6945 59.1506 36.7745C59.0891 35.8544 59.2184 34.9314 59.5302 34.0651C59.6237 33.8052 59.9102 33.6704 60.17 33.7639Z" fill="#140000"/>
        <path fill-rule="evenodd" clip-rule="evenodd" d="M60.17 33.7639C60.4298 33.8575 60.5646 34.1439 60.4711 34.4037C60.2061 35.14 60.0961 35.9251 60.1484 36.7078C60.2007 37.4903 60.414 38.2525 60.7742 38.945C61.023 39.4199 61.2541 39.8445 61.4602 40.2233C61.7888 40.8271 62.0538 41.3141 62.2258 41.7016C62.3693 42.0247 62.4769 42.3377 62.4967 42.6411C62.5176 42.9613 62.4394 43.252 62.2541 43.515C62.0795 43.7981 61.8524 44.0448 61.585 44.2411C61.3122 44.4415 61.0027 44.5854 60.6743 44.6644C60.3458 44.7433 60.0052 44.7557 59.672 44.7006C59.3388 44.6455 59.0199 44.5242 58.7336 44.344C58.4999 44.1969 58.4298 43.8882 58.5769 43.6545C58.724 43.4208 59.0327 43.3506 59.2664 43.4977C59.4405 43.6073 59.6338 43.6807 59.835 43.714C60.0363 43.7472 60.242 43.7398 60.4405 43.6921C60.6391 43.6444 60.8269 43.5572 60.9931 43.4351C61.1594 43.313 61.301 43.1584 61.4093 42.9797C61.4165 42.9678 61.4242 42.9562 61.4323 42.945C61.4856 42.8716 61.5054 42.8073 61.4988 42.7061C61.4907 42.5807 61.4405 42.3971 61.3118 42.1073C61.1542 41.7522 60.9217 41.3256 60.6142 40.7613C60.4065 40.38 60.1644 39.9359 59.8881 39.4085L59.8874 39.4072C59.463 38.5915 59.2121 37.6945 59.1506 36.7745C59.0891 35.8544 59.2184 34.9314 59.5302 34.0651C59.6237 33.8052 59.9102 33.6704 60.17 33.7639Z" fill="black" fill-opacity="0.2"/>
        <path fill-rule="evenodd" clip-rule="evenodd" d="M60.17 33.7639C60.4298 33.8575 60.5646 34.1439 60.4711 34.4037C60.2061 35.14 60.0961 35.9251 60.1484 36.7078C60.2007 37.4903 60.414 38.2525 60.7742 38.945C61.023 39.4199 61.2541 39.8445 61.4602 40.2233C61.7888 40.8271 62.0538 41.3141 62.2258 41.7016C62.3693 42.0247 62.4769 42.3377 62.4967 42.6411C62.5176 42.9613 62.4394 43.252 62.2541 43.515C62.0795 43.7981 61.8524 44.0448 61.585 44.2411C61.3122 44.4415 61.0027 44.5854 60.6743 44.6644C60.3458 44.7433 60.0052 44.7557 59.672 44.7006C59.3388 44.6455 59.0199 44.5242 58.7336 44.344C58.4999 44.1969 58.4298 43.8882 58.5769 43.6545C58.724 43.4208 59.0327 43.3506 59.2664 43.4977C59.4405 43.6073 59.6338 43.6807 59.835 43.714C60.0363 43.7472 60.242 43.7398 60.4405 43.6921C60.6391 43.6444 60.8269 43.5572 60.9931 43.4351C61.1594 43.313 61.301 43.1584 61.4093 42.9797C61.4165 42.9678 61.4242 42.9562 61.4323 42.945C61.4856 42.8716 61.5054 42.8073 61.4988 42.7061C61.4907 42.5807 61.4405 42.3971 61.3118 42.1073C61.1542 41.7522 60.9217 41.3256 60.6142 40.7613C60.4065 40.38 60.1644 39.9359 59.8881 39.4085L59.8874 39.4072C59.463 38.5915 59.2121 37.6945 59.1506 36.7745C59.0891 35.8544 59.2184 34.9314 59.5302 34.0651C59.6237 33.8052 59.9102 33.6704 60.17 33.7639Z" fill="black" fill-opacity="0.2"/>
        <path fill-rule="evenodd" clip-rule="evenodd" d="M60.17 33.7639C60.4298 33.8575 60.5646 34.1439 60.4711 34.4037C60.2061 35.14 60.0961 35.9251 60.1484 36.7078C60.2007 37.4903 60.414 38.2525 60.7742 38.945C61.023 39.4199 61.2541 39.8445 61.4602 40.2233C61.7888 40.8271 62.0538 41.3141 62.2258 41.7016C62.3693 42.0247 62.4769 42.3377 62.4967 42.6411C62.5176 42.9613 62.4394 43.252 62.2541 43.515C62.0795 43.7981 61.8524 44.0448 61.585 44.2411C61.3122 44.4415 61.0027 44.5854 60.6743 44.6644C60.3458 44.7433 60.0052 44.7557 59.672 44.7006C59.3388 44.6455 59.0199 44.5242 58.7336 44.344C58.4999 44.1969 58.4298 43.8882 58.5769 43.6545C58.724 43.4208 59.0327 43.3506 59.2664 43.4977C59.4405 43.6073 59.6338 43.6807 59.835 43.714C60.0363 43.7472 60.242 43.7398 60.4405 43.6921C60.6391 43.6444 60.8269 43.5572 60.9931 43.4351C61.1594 43.313 61.301 43.1584 61.4093 42.9797C61.4165 42.9678 61.4242 42.9562 61.4323 42.945C61.4856 42.8716 61.5054 42.8073 61.4988 42.7061C61.4907 42.5807 61.4405 42.3971 61.3118 42.1073C61.1542 41.7522 60.9217 41.3256 60.6142 40.7613C60.4065 40.38 60.1644 39.9359 59.8881 39.4085L59.8874 39.4072C59.463 38.5915 59.2121 37.6945 59.1506 36.7745C59.0891 35.8544 59.2184 34.9314 59.5302 34.0651C59.6237 33.8052 59.9102 33.6704 60.17 33.7639Z" fill="black" fill-opacity="0.2"/>
        <path fill-rule="evenodd" clip-rule="evenodd" d="M51.7616 47.7948C52.0044 47.6632 52.3079 47.7532 52.4395 47.996C53.1875 49.375 54.6857 49.7522 56.1568 49.7337C56.8791 49.7247 57.5544 49.619 58.0519 49.5142C58.2997 49.4621 58.501 49.4106 58.6391 49.3726C58.7081 49.3537 58.7612 49.3381 58.7962 49.3275L58.8349 49.3156L58.8436 49.3128L58.8449 49.3124L58.8452 49.3123C59.1076 49.2269 59.3897 49.3702 59.4753 49.6327C59.561 49.8952 59.4176 50.1774 59.1551 50.2631L59.0094 49.8165C59.1551 50.2631 59.1549 50.2632 59.1547 50.2632L59.1542 50.2634L59.1529 50.2638L59.1488 50.2651L59.135 50.2695C59.1233 50.2732 59.1066 50.2783 59.0854 50.2848C59.0429 50.2976 58.9819 50.3155 58.9044 50.3368C58.7495 50.3794 58.5283 50.4359 58.2579 50.4928C57.7192 50.6062 56.9761 50.7235 56.1694 50.7336C54.5826 50.7536 52.5809 50.3541 51.5605 48.4727C51.4288 48.23 51.5189 47.9265 51.7616 47.7948Z" fill="#140000"/>
        <path fill-rule="evenodd" clip-rule="evenodd" d="M51.7616 47.7948C52.0044 47.6632 52.3079 47.7532 52.4395 47.996C53.1875 49.375 54.6857 49.7522 56.1568 49.7337C56.8791 49.7247 57.5544 49.619 58.0519 49.5142C58.2997 49.4621 58.501 49.4106 58.6391 49.3726C58.7081 49.3537 58.7612 49.3381 58.7962 49.3275L58.8349 49.3156L58.8436 49.3128L58.8449 49.3124L58.8452 49.3123C59.1076 49.2269 59.3897 49.3702 59.4753 49.6327C59.561 49.8952 59.4176 50.1774 59.1551 50.2631L59.0094 49.8165C59.1551 50.2631 59.1549 50.2632 59.1547 50.2632L59.1542 50.2634L59.1529 50.2638L59.1488 50.2651L59.135 50.2695C59.1233 50.2732 59.1066 50.2783 59.0854 50.2848C59.0429 50.2976 58.9819 50.3155 58.9044 50.3368C58.7495 50.3794 58.5283 50.4359 58.2579 50.4928C57.7192 50.6062 56.9761 50.7235 56.1694 50.7336C54.5826 50.7536 52.5809 50.3541 51.5605 48.4727C51.4288 48.23 51.5189 47.9265 51.7616 47.7948Z" fill="black" fill-opacity="0.2"/>
        <path fill-rule="evenodd" clip-rule="evenodd" d="M51.7616 47.7948C52.0044 47.6632 52.3079 47.7532 52.4395 47.996C53.1875 49.375 54.6857 49.7522 56.1568 49.7337C56.8791 49.7247 57.5544 49.619 58.0519 49.5142C58.2997 49.4621 58.501 49.4106 58.6391 49.3726C58.7081 49.3537 58.7612 49.3381 58.7962 49.3275L58.8349 49.3156L58.8436 49.3128L58.8449 49.3124L58.8452 49.3123C59.1076 49.2269 59.3897 49.3702 59.4753 49.6327C59.561 49.8952 59.4176 50.1774 59.1551 50.2631L59.0094 49.8165C59.1551 50.2631 59.1549 50.2632 59.1547 50.2632L59.1542 50.2634L59.1529 50.2638L59.1488 50.2651L59.135 50.2695C59.1233 50.2732 59.1066 50.2783 59.0854 50.2848C59.0429 50.2976 58.9819 50.3155 58.9044 50.3368C58.7495 50.3794 58.5283 50.4359 58.2579 50.4928C57.7192 50.6062 56.9761 50.7235 56.1694 50.7336C54.5826 50.7536 52.5809 50.3541 51.5605 48.4727C51.4288 48.23 51.5189 47.9265 51.7616 47.7948Z" fill="black" fill-opacity="0.2"/>
        <path fill-rule="evenodd" clip-rule="evenodd" d="M51.7616 47.7948C52.0044 47.6632 52.3079 47.7532 52.4395 47.996C53.1875 49.375 54.6857 49.7522 56.1568 49.7337C56.8791 49.7247 57.5544 49.619 58.0519 49.5142C58.2997 49.4621 58.501 49.4106 58.6391 49.3726C58.7081 49.3537 58.7612 49.3381 58.7962 49.3275L58.8349 49.3156L58.8436 49.3128L58.8449 49.3124L58.8452 49.3123C59.1076 49.2269 59.3897 49.3702 59.4753 49.6327C59.561 49.8952 59.4176 50.1774 59.1551 50.2631L59.0094 49.8165C59.1551 50.2631 59.1549 50.2632 59.1547 50.2632L59.1542 50.2634L59.1529 50.2638L59.1488 50.2651L59.135 50.2695C59.1233 50.2732 59.1066 50.2783 59.0854 50.2848C59.0429 50.2976 58.9819 50.3155 58.9044 50.3368C58.7495 50.3794 58.5283 50.4359 58.2579 50.4928C57.7192 50.6062 56.9761 50.7235 56.1694 50.7336C54.5826 50.7536 52.5809 50.3541 51.5605 48.4727C51.4288 48.23 51.5189 47.9265 51.7616 47.7948Z" fill="black" fill-opacity="0.2"/>
        <path d="M54 38.2344C54 39.3244 53.5475 40.2344 52.9927 40.2344C52.438 40.2344 52 39.3544 52 38.2344C52 37.1144 52.438 36.2344 52.9927 36.2344C53.5475 36.2344 54 37.1444 54 38.2344Z" fill="#140000"/>
        <path d="M54 38.2344C54 39.3244 53.5475 40.2344 52.9927 40.2344C52.438 40.2344 52 39.3544 52 38.2344C52 37.1144 52.438 36.2344 52.9927 36.2344C53.5475 36.2344 54 37.1444 54 38.2344Z" fill="black" fill-opacity="0.2"/>
        <path d="M54 38.2344C54 39.3244 53.5475 40.2344 52.9927 40.2344C52.438 40.2344 52 39.3544 52 38.2344C52 37.1144 52.438 36.2344 52.9927 36.2344C53.5475 36.2344 54 37.1444 54 38.2344Z" fill="black" fill-opacity="0.2"/>
        <path d="M54 38.2344C54 39.3244 53.5475 40.2344 52.9927 40.2344C52.438 40.2344 52 39.3544 52 38.2344C52 37.1144 52.438 36.2344 52.9927 36.2344C53.5475 36.2344 54 37.1444 54 38.2344Z" fill="black" fill-opacity="0.2"/>
        <path d="M62.5 38.2344C62.7761 38.2344 63 37.3389 63 36.2344C63 35.1298 62.7761 34.2344 62.5 34.2344C62.2239 34.2344 62 35.1298 62 36.2344C62 37.3389 62.2239 38.2344 62.5 38.2344Z" fill="#140000"/>
        <path d="M62.5 38.2344C62.7761 38.2344 63 37.3389 63 36.2344C63 35.1298 62.7761 34.2344 62.5 34.2344C62.2239 34.2344 62 35.1298 62 36.2344C62 37.3389 62.2239 38.2344 62.5 38.2344Z" fill="black" fill-opacity="0.2"/>
        <path d="M62.5 38.2344C62.7761 38.2344 63 37.3389 63 36.2344C63 35.1298 62.7761 34.2344 62.5 34.2344C62.2239 34.2344 62 35.1298 62 36.2344C62 37.3389 62.2239 38.2344 62.5 38.2344Z" fill="black" fill-opacity="0.2"/>
        <path d="M62.5 38.2344C62.7761 38.2344 63 37.3389 63 36.2344C63 35.1298 62.7761 34.2344 62.5 34.2344C62.2239 34.2344 62 35.1298 62 36.2344C62 37.3389 62.2239 38.2344 62.5 38.2344Z" fill="black" fill-opacity="0.2"/>
        <path fill-rule="evenodd" clip-rule="evenodd" d="M48.4491 32.4541C48.4484 32.4555 48.4477 32.4569 48.447 32.4583L48.4469 32.4586L48.4468 32.4587C48.4468 32.4587 48.447 32.4583 48.4474 32.4576L48.4482 32.4559L48.4488 32.4547L48.4491 32.4541ZM48.4509 32.4512L48.447 32.4583C48.3245 32.703 48.0276 32.804 47.781 32.6838C47.5328 32.5629 47.4296 32.2636 47.5505 32.0154L47.9999 32.2343C47.5505 32.0154 47.5507 32.015 47.5509 32.0146L47.5513 32.0138L47.5522 32.0119L47.5543 32.0076L47.5601 31.9964C47.5646 31.9877 47.5704 31.9769 47.5776 31.9639C47.5921 31.9381 47.6121 31.9039 47.6384 31.8628C47.6911 31.7805 47.7688 31.6704 47.8769 31.5432C48.0936 31.2884 48.4309 30.9667 48.9288 30.6652C49.9305 30.0588 51.5412 29.5586 54.0467 29.7935C54.3216 29.8193 54.5236 30.0631 54.4978 30.338C54.472 30.613 54.2283 30.815 53.9533 30.7892C51.6261 30.571 50.2368 31.0423 49.4467 31.5207C49.0487 31.7616 48.7921 32.0106 48.6388 32.1909C48.562 32.2813 48.5108 32.3547 48.4807 32.4018C48.4657 32.4253 48.4559 32.4421 48.4509 32.4512Z" fill="#140000"/>
        <path fill-rule="evenodd" clip-rule="evenodd" d="M48.4491 32.4541C48.4484 32.4555 48.4477 32.4569 48.447 32.4583L48.4469 32.4586L48.4468 32.4587C48.4468 32.4587 48.447 32.4583 48.4474 32.4576L48.4482 32.4559L48.4488 32.4547L48.4491 32.4541ZM48.4509 32.4512L48.447 32.4583C48.3245 32.703 48.0276 32.804 47.781 32.6838C47.5328 32.5629 47.4296 32.2636 47.5505 32.0154L47.9999 32.2343C47.5505 32.0154 47.5507 32.015 47.5509 32.0146L47.5513 32.0138L47.5522 32.0119L47.5543 32.0076L47.5601 31.9964C47.5646 31.9877 47.5704 31.9769 47.5776 31.9639C47.5921 31.9381 47.6121 31.9039 47.6384 31.8628C47.6911 31.7805 47.7688 31.6704 47.8769 31.5432C48.0936 31.2884 48.4309 30.9667 48.9288 30.6652C49.9305 30.0588 51.5412 29.5586 54.0467 29.7935C54.3216 29.8193 54.5236 30.0631 54.4978 30.338C54.472 30.613 54.2283 30.815 53.9533 30.7892C51.6261 30.571 50.2368 31.0423 49.4467 31.5207C49.0487 31.7616 48.7921 32.0106 48.6388 32.1909C48.562 32.2813 48.5108 32.3547 48.4807 32.4018C48.4657 32.4253 48.4559 32.4421 48.4509 32.4512Z" fill="black" fill-opacity="0.2"/>
        <path fill-rule="evenodd" clip-rule="evenodd" d="M48.4491 32.4541C48.4484 32.4555 48.4477 32.4569 48.447 32.4583L48.4469 32.4586L48.4468 32.4587C48.4468 32.4587 48.447 32.4583 48.4474 32.4576L48.4482 32.4559L48.4488 32.4547L48.4491 32.4541ZM48.4509 32.4512L48.447 32.4583C48.3245 32.703 48.0276 32.804 47.781 32.6838C47.5328 32.5629 47.4296 32.2636 47.5505 32.0154L47.9999 32.2343C47.5505 32.0154 47.5507 32.015 47.5509 32.0146L47.5513 32.0138L47.5522 32.0119L47.5543 32.0076L47.5601 31.9964C47.5646 31.9877 47.5704 31.9769 47.5776 31.9639C47.5921 31.9381 47.6121 31.9039 47.6384 31.8628C47.6911 31.7805 47.7688 31.6704 47.8769 31.5432C48.0936 31.2884 48.4309 30.9667 48.9288 30.6652C49.9305 30.0588 51.5412 29.5586 54.0467 29.7935C54.3216 29.8193 54.5236 30.0631 54.4978 30.338C54.472 30.613 54.2283 30.815 53.9533 30.7892C51.6261 30.571 50.2368 31.0423 49.4467 31.5207C49.0487 31.7616 48.7921 32.0106 48.6388 32.1909C48.562 32.2813 48.5108 32.3547 48.4807 32.4018C48.4657 32.4253 48.4559 32.4421 48.4509 32.4512Z" fill="black" fill-opacity="0.2"/>
        <path fill-rule="evenodd" clip-rule="evenodd" d="M48.4491 32.4541C48.4484 32.4555 48.4477 32.4569 48.447 32.4583L48.4469 32.4586L48.4468 32.4587C48.4468 32.4587 48.447 32.4583 48.4474 32.4576L48.4482 32.4559L48.4488 32.4547L48.4491 32.4541ZM48.4509 32.4512L48.447 32.4583C48.3245 32.703 48.0276 32.804 47.781 32.6838C47.5328 32.5629 47.4296 32.2636 47.5505 32.0154L47.9999 32.2343C47.5505 32.0154 47.5507 32.015 47.5509 32.0146L47.5513 32.0138L47.5522 32.0119L47.5543 32.0076L47.5601 31.9964C47.5646 31.9877 47.5704 31.9769 47.5776 31.9639C47.5921 31.9381 47.6121 31.9039 47.6384 31.8628C47.6911 31.7805 47.7688 31.6704 47.8769 31.5432C48.0936 31.2884 48.4309 30.9667 48.9288 30.6652C49.9305 30.0588 51.5412 29.5586 54.0467 29.7935C54.3216 29.8193 54.5236 30.0631 54.4978 30.338C54.472 30.613 54.2283 30.815 53.9533 30.7892C51.6261 30.571 50.2368 31.0423 49.4467 31.5207C49.0487 31.7616 48.7921 32.0106 48.6388 32.1909C48.562 32.2813 48.5108 32.3547 48.4807 32.4018C48.4657 32.4253 48.4559 32.4421 48.4509 32.4512Z" fill="black" fill-opacity="0.2"/>
        <path fill-rule="evenodd" clip-rule="evenodd" d="M60.4763 30.3864L60.4779 30.3817L60.4867 30.3562C60.4949 30.3328 60.5079 30.297 60.5257 30.2515C60.5614 30.1602 60.6156 30.0317 60.6884 29.8868C60.8377 29.5893 61.0481 29.2572 61.3097 29.0246C61.5617 28.8005 61.8279 28.6941 62.1378 28.7487C62.4733 28.8079 62.9681 29.0737 63.615 29.8542C63.7912 30.0669 64.1064 30.0964 64.319 29.9202C64.5317 29.744 64.5612 29.4288 64.385 29.2162C63.6684 28.3515 62.9816 27.8821 62.3115 27.7639C61.6157 27.6412 61.0523 27.9152 60.6452 28.2773C60.2477 28.6307 59.9693 29.0904 59.7947 29.4381C59.7055 29.6158 59.6389 29.7733 59.5944 29.8873C59.572 29.9445 59.555 29.9912 59.5433 30.0246C59.5374 30.0413 59.5328 30.0547 59.5296 30.0644L59.5257 30.0763L59.5244 30.0801L59.524 30.0814L59.5238 30.0819C59.5237 30.0822 59.5237 30.0824 60 30.2344L59.5237 30.0824C59.4397 30.3455 59.5849 30.6268 59.848 30.7107C60.1109 30.7947 60.3921 30.6496 60.4762 30.3868L60.4763 30.3864Z" fill="#140000"/>
        <path fill-rule="evenodd" clip-rule="evenodd" d="M60.4763 30.3864L60.4779 30.3817L60.4867 30.3562C60.4949 30.3328 60.5079 30.297 60.5257 30.2515C60.5614 30.1602 60.6156 30.0317 60.6884 29.8868C60.8377 29.5893 61.0481 29.2572 61.3097 29.0246C61.5617 28.8005 61.8279 28.6941 62.1378 28.7487C62.4733 28.8079 62.9681 29.0737 63.615 29.8542C63.7912 30.0669 64.1064 30.0964 64.319 29.9202C64.5317 29.744 64.5612 29.4288 64.385 29.2162C63.6684 28.3515 62.9816 27.8821 62.3115 27.7639C61.6157 27.6412 61.0523 27.9152 60.6452 28.2773C60.2477 28.6307 59.9693 29.0904 59.7947 29.4381C59.7055 29.6158 59.6389 29.7733 59.5944 29.8873C59.572 29.9445 59.555 29.9912 59.5433 30.0246C59.5374 30.0413 59.5328 30.0547 59.5296 30.0644L59.5257 30.0763L59.5244 30.0801L59.524 30.0814L59.5238 30.0819C59.5237 30.0822 59.5237 30.0824 60 30.2344L59.5237 30.0824C59.4397 30.3455 59.5849 30.6268 59.848 30.7107C60.1109 30.7947 60.3921 30.6496 60.4762 30.3868L60.4763 30.3864Z" fill="black" fill-opacity="0.2"/>
        <path fill-rule="evenodd" clip-rule="evenodd" d="M60.4763 30.3864L60.4779 30.3817L60.4867 30.3562C60.4949 30.3328 60.5079 30.297 60.5257 30.2515C60.5614 30.1602 60.6156 30.0317 60.6884 29.8868C60.8377 29.5893 61.0481 29.2572 61.3097 29.0246C61.5617 28.8005 61.8279 28.6941 62.1378 28.7487C62.4733 28.8079 62.9681 29.0737 63.615 29.8542C63.7912 30.0669 64.1064 30.0964 64.319 29.9202C64.5317 29.744 64.5612 29.4288 64.385 29.2162C63.6684 28.3515 62.9816 27.8821 62.3115 27.7639C61.6157 27.6412 61.0523 27.9152 60.6452 28.2773C60.2477 28.6307 59.9693 29.0904 59.7947 29.4381C59.7055 29.6158 59.6389 29.7733 59.5944 29.8873C59.572 29.9445 59.555 29.9912 59.5433 30.0246C59.5374 30.0413 59.5328 30.0547 59.5296 30.0644L59.5257 30.0763L59.5244 30.0801L59.524 30.0814L59.5238 30.0819C59.5237 30.0822 59.5237 30.0824 60 30.2344L59.5237 30.0824C59.4397 30.3455 59.5849 30.6268 59.848 30.7107C60.1109 30.7947 60.3921 30.6496 60.4762 30.3868L60.4763 30.3864Z" fill="black" fill-opacity="0.2"/>
        <path fill-rule="evenodd" clip-rule="evenodd" d="M60.4763 30.3864L60.4779 30.3817L60.4867 30.3562C60.4949 30.3328 60.5079 30.297 60.5257 30.2515C60.5614 30.1602 60.6156 30.0317 60.6884 29.8868C60.8377 29.5893 61.0481 29.2572 61.3097 29.0246C61.5617 28.8005 61.8279 28.6941 62.1378 28.7487C62.4733 28.8079 62.9681 29.0737 63.615 29.8542C63.7912 30.0669 64.1064 30.0964 64.319 29.9202C64.5317 29.744 64.5612 29.4288 64.385 29.2162C63.6684 28.3515 62.9816 27.8821 62.3115 27.7639C61.6157 27.6412 61.0523 27.9152 60.6452 28.2773C60.2477 28.6307 59.9693 29.0904 59.7947 29.4381C59.7055 29.6158 59.6389 29.7733 59.5944 29.8873C59.572 29.9445 59.555 29.9912 59.5433 30.0246C59.5374 30.0413 59.5328 30.0547 59.5296 30.0644L59.5257 30.0763L59.5244 30.0801L59.524 30.0814L59.5238 30.0819C59.5237 30.0822 59.5237 30.0824 60 30.2344L59.5237 30.0824C59.4397 30.3455 59.5849 30.6268 59.848 30.7107C60.1109 30.7947 60.3921 30.6496 60.4762 30.3868L60.4763 30.3864Z" fill="black" fill-opacity="0.2"/>
    </g>
    <defs>
        <clipPath id="clip0_25_437">
            <rect width="82.2944" height="90" fill="white" transform="translate(0 0.734375)"/>
        </clipPath>
    </defs>
</svg>
