<svg width="57" height="56" viewBox="0 0 57 56" fill="none" xmlns="http://www.w3.org/2000/svg">
    <path d="M41.5272 18.3656L35.2772 12.1156C35.1611 11.9996 35.0232 11.9076 34.8714 11.8448C34.7197 11.7821 34.5571 11.7499 34.3929 11.75H21.8929C21.2298 11.75 20.5939 12.0134 20.1251 12.4822C19.6563 12.9511 19.3929 13.587 19.3929 14.25V16.75H16.8929C16.2298 16.75 15.5939 17.0134 15.1251 17.4822C14.6563 17.9511 14.3929 18.587 14.3929 19.25V41.75C14.3929 42.413 14.6563 43.0489 15.1251 43.5178C15.5939 43.9866 16.2298 44.25 16.8929 44.25H34.3929C35.0559 44.25 35.6918 43.9866 36.1606 43.5178C36.6295 43.0489 36.8929 42.413 36.8929 41.75V39.25H39.3929C40.0559 39.25 40.6918 38.9866 41.1606 38.5178C41.6295 38.0489 41.8929 37.413 41.8929 36.75V19.25C41.893 19.0858 41.8608 18.9232 41.798 18.7714C41.7353 18.6197 41.6433 18.4818 41.5272 18.3656ZM34.3929 41.75H16.8929V19.25H28.8757L34.3929 24.7672V37.975C34.3929 37.9844 34.3929 37.9922 34.3929 38C34.3929 38.0078 34.3929 38.0156 34.3929 38.025V41.75ZM39.3929 36.75H36.8929V24.25C36.893 24.0858 36.8608 23.9232 36.798 23.7714C36.7353 23.6197 36.6433 23.4818 36.5272 23.3656L30.2772 17.1156C30.1611 16.9996 30.0232 16.9076 29.8714 16.8448C29.7197 16.7821 29.5571 16.7499 29.3929 16.75H21.8929V14.25H33.8757L39.3929 19.7672V36.75ZM30.6429 31.75C30.6429 32.0815 30.5112 32.3995 30.2768 32.6339C30.0423 32.8683 29.7244 33 29.3929 33H21.8929C21.5613 33 21.2434 32.8683 21.009 32.6339C20.7746 32.3995 20.6429 32.0815 20.6429 31.75C20.6429 31.4185 20.7746 31.1005 21.009 30.8661C21.2434 30.6317 21.5613 30.5 21.8929 30.5H29.3929C29.7244 30.5 30.0423 30.6317 30.2768 30.8661C30.5112 31.1005 30.6429 31.4185 30.6429 31.75ZM30.6429 36.75C30.6429 37.0815 30.5112 37.3995 30.2768 37.6339C30.0423 37.8683 29.7244 38 29.3929 38H21.8929C21.5613 38 21.2434 37.8683 21.009 37.6339C20.7746 37.3995 20.6429 37.0815 20.6429 36.75C20.6429 36.4185 20.7746 36.1005 21.009 35.8661C21.2434 35.6317 21.5613 35.5 21.8929 35.5H29.3929C29.7244 35.5 30.0423 35.6317 30.2768 35.8661C30.5112 36.1005 30.6429 36.4185 30.6429 36.75Z" fill="#140000" fill-opacity="0.8"/>
</svg>
