<svg width="57" height="56" viewBox="0 0 57 56" fill="none" xmlns="http://www.w3.org/2000/svg">
    <path fill-rule="evenodd" clip-rule="evenodd" d="M20.5238 10.0834C21.2142 10.0834 21.7738 10.643 21.7738 11.3334V23.2414C22.0228 23.1805 22.2853 23.0994 22.5431 22.992C23.0399 22.785 23.4671 22.5023 23.7665 22.128C24.0502 21.7734 24.2738 21.2705 24.2738 20.5V12.1667C24.2738 11.4764 24.8335 10.9167 25.5238 10.9167C26.2142 10.9167 26.7738 11.4764 26.7738 12.1667V20.5C26.7738 21.8129 26.3725 22.8725 25.7187 23.6898C25.0806 24.4874 24.2578 24.9859 23.5046 25.2997C22.8813 25.5594 22.27 25.7078 21.7738 25.7935V44.6667C21.7738 45.3571 21.2142 45.9167 20.5238 45.9167C19.8335 45.9167 19.2738 45.3571 19.2738 44.6667V25.7935C18.7777 25.7078 18.1663 25.5594 17.5431 25.2997C16.7899 24.9859 15.9671 24.4874 15.329 23.6898C14.6752 22.8725 14.2738 21.8129 14.2738 20.5V12.1667C14.2738 11.4764 14.8335 10.9167 15.5238 10.9167C16.2142 10.9167 16.7738 11.4764 16.7738 12.1667V20.5C16.7738 21.2705 16.9975 21.7734 17.2812 22.128C17.5806 22.5023 18.0078 22.785 18.5046 22.992C18.7624 23.0994 19.0248 23.1805 19.2738 23.2414V11.3334C19.2738 10.643 19.8335 10.0834 20.5238 10.0834Z" fill="#140000" fill-opacity="0.8"/>
    <path fill-rule="evenodd" clip-rule="evenodd" d="M40.5238 10.0834C41.2142 10.0834 41.7738 10.643 41.7738 11.3334V44.6667C41.7738 45.3571 41.2142 45.9167 40.5238 45.9167C39.8335 45.9167 39.2738 45.3571 39.2738 44.6667V26.75H33.8572C33.1668 26.75 32.6072 26.1904 32.6072 25.5V18C32.6072 16.1146 33.0821 14.6175 33.8588 13.4525C34.6302 12.2953 35.6499 11.5395 36.6315 11.0487C37.6082 10.5603 38.5698 10.3224 39.2767 10.2045C39.6331 10.1451 39.9328 10.115 40.1483 10.0996C40.2563 10.0919 40.3438 10.0878 40.4073 10.0857C40.4391 10.0846 40.465 10.0841 40.4846 10.0837L40.5091 10.0834L40.5177 10.0834L40.5211 10.0834L40.5238 10.0834C40.5245 10.0834 40.5238 10.0834 40.5238 11.3334V10.0834ZM39.2738 12.7514C38.8091 12.8558 38.2749 13.022 37.7495 13.2847C37.0645 13.6273 36.4175 14.1214 35.9389 14.8392C35.4656 15.5493 35.1072 16.5521 35.1072 18V24.25H39.2738V12.7514Z" fill="#140000" fill-opacity="0.8"/>
</svg>
