<svg width="72" height="72" viewBox="0 0 72 72" fill="none" xmlns="http://www.w3.org/2000/svg">
    <g clip-path="url(#clip0_25_28)">
        <path d="M35.9831 71.9068C28.8828 71.9034 21.9429 69.7951 16.0406 65.8483C10.1384 61.9015 5.53874 56.2935 2.82313 49.733C0.107526 43.1726 -0.602122 35.9543 0.783892 28.9907C2.16991 22.027 5.58936 15.6306 10.61 10.6099C15.6306 5.58927 22.0271 2.16981 28.9908 0.7838C35.9544 -0.602214 43.1727 0.107435 49.7331 2.82304C56.2936 5.53865 61.9016 10.1383 65.8484 16.0406C69.7952 21.9428 71.9035 28.8827 71.9069 35.983V71.8898L35.9831 71.9068Z" fill="#6600CC"/>
        <path d="M3.04798 37.6764V26.2846H4.88946V37.651C4.8906 37.8922 4.84321 38.1312 4.75012 38.3537C4.65704 38.5763 4.52015 38.7778 4.3476 38.9464C4.18175 39.1251 3.9806 39.2674 3.75689 39.3643C3.53317 39.4612 3.29178 39.5106 3.04798 39.5094H0.169332C0.211665 39.9327 0.253998 40.3222 0.309031 40.7244H3.04798C3.45183 40.7311 3.85275 40.6546 4.22568 40.4994C4.59861 40.3443 4.93554 40.1139 5.21543 39.8227C5.50342 39.5399 5.73107 39.2017 5.8846 38.8284C6.03813 38.4551 6.11435 38.0546 6.10865 37.651V26.2846H7.94591V37.651C7.9566 38.2976 7.83479 38.9395 7.58798 39.5373C7.34117 40.135 6.97459 40.6759 6.51082 41.1265C6.06351 41.5915 5.52515 41.9593 4.92935 42.207C4.33355 42.4546 3.6931 42.5768 3.04798 42.5659H0.601129C0.673095 42.9892 0.757761 43.3829 0.84666 43.785H3.04798C3.85345 43.797 4.65284 43.6439 5.39691 43.3352C6.14097 43.0265 6.81396 42.5688 7.37441 41.9901C7.95265 41.4269 8.40974 40.7516 8.71766 40.0054C9.02558 39.2593 9.17784 38.4581 9.1651 37.651V26.2846H11.0066V35.8984C11.0066 38.6642 11.9407 40.7808 13.809 42.2484C15.4572 43.5438 17.6049 44.1914 20.2521 44.1914C22.8993 44.1914 25.0456 43.5438 26.691 42.2484C28.5621 40.7836 29.4976 38.667 29.4976 35.8984V26.2846H31.3264V29.8914C31.8209 29.2424 32.4004 28.6629 33.0494 28.1684C35.0475 26.6472 37.555 25.8867 40.572 25.8867C43.5889 25.8867 46.0964 26.6472 48.0945 28.1684C49.2369 29.0223 50.149 30.1468 50.7488 31.4407C51.2812 30.3012 52.0538 29.2903 53.0136 28.4774C55.0202 26.7531 57.6505 25.8923 60.9045 25.8951C64.1585 25.8979 66.786 26.7587 68.7869 28.4774C70.9092 30.278 71.9774 32.7573 71.9915 35.9153C71.9736 26.3794 68.1711 17.2405 61.4194 10.5063C54.6678 3.77205 45.519 -0.00673915 35.9831 9.02265e-06C26.4398 9.02265e-06 17.2873 3.79107 10.5392 10.5392C3.79106 17.2873 0 26.4398 0 35.9831C0 36.5588 0 37.1134 0.0380997 37.6764H3.04798ZM15.2822 26.2846H17.1195V35.8984C17.073 36.4197 17.2241 36.9395 17.5428 37.3547C17.9972 37.8288 18.9031 38.0659 20.2606 38.0659C21.6195 38.0659 22.5212 37.8288 22.9741 37.3547C23.2929 36.9395 23.4439 36.4197 23.3975 35.8984V26.2846H25.2389V35.8984C25.2389 38.571 23.5823 39.9073 20.2691 39.9073C16.9558 39.9073 15.2935 38.571 15.2822 35.8984V26.2846ZM12.2215 26.2846H14.063V35.8984C14.063 37.5917 14.5908 38.8871 15.6463 39.7846C16.7018 40.682 18.2371 41.1279 20.2521 41.1223C22.2728 41.1223 23.8067 40.6792 24.8537 39.793C25.9008 38.9069 26.4285 37.6115 26.437 35.9069V26.2846H28.2785V35.8984C28.2785 38.2352 27.5094 40.0216 25.9713 41.2578C24.5602 42.3867 22.6538 42.9511 20.2521 42.9511C17.8504 42.9511 15.944 42.3867 14.5329 41.2578C12.992 40.0216 12.2215 38.2352 12.2215 35.8984V26.2846Z" fill="#C3FF28"/>
        <path d="M67.4915 29.7854C65.8405 28.4138 63.6477 27.728 60.913 27.728C58.1783 27.728 55.9868 28.4138 54.3387 29.7854C52.555 31.2586 51.6646 33.3329 51.6675 36.0084C51.6703 38.6838 52.572 40.7553 54.3725 42.2229C56.0433 43.5916 58.2502 44.2746 60.9934 44.2718C63.0069 44.332 64.9983 43.8386 66.7507 42.8451C67.617 42.35 68.3674 41.6753 68.9515 40.8663C69.5356 40.0573 69.9399 39.1327 70.1374 38.1546H72.0042V36.8847H70.1628V36.0084C70.1599 33.3301 69.2695 31.2558 67.4915 29.7854ZM68.9309 36.8847H54.762C54.8193 37.5845 55.0452 38.26 55.4205 38.8534C55.7957 39.4469 56.3091 39.9407 56.9167 40.2925C58.168 40.9615 59.5757 41.2831 60.9934 41.2238C64.1599 41.2238 66.1355 40.2007 66.92 38.1546H68.8716C68.6691 38.9676 68.2955 39.7279 67.7758 40.385C67.256 41.042 66.602 41.5805 65.8575 41.9646C64.3555 42.7375 62.6818 43.1162 60.9934 43.0653C58.5974 43.0653 56.6755 42.5023 55.2404 41.372C53.6656 40.1274 52.8782 38.3409 52.8782 36.0126C52.8782 33.6843 53.6529 31.8964 55.2023 30.649C56.6134 29.5201 58.5169 28.9557 60.913 28.9557C63.309 28.9557 65.2253 29.5201 66.6618 30.649C68.2366 31.8936 69 33.68 68.952 36.0084L68.9309 36.8847ZM65.5781 38.1546C64.8669 39.3823 63.3387 39.9961 60.9934 39.9961C58.6482 39.9961 57.1326 39.3823 56.4469 38.1546H65.5781Z" fill="#C3FF28"/>
        <path d="M64.9727 31.7497C63.7322 31.067 62.3276 30.7389 60.913 30.8015C59.4984 30.7396 58.094 31.0676 56.8532 31.7497C56.2529 32.1153 55.7495 32.6201 55.3855 33.2214C55.0215 33.8226 54.8076 34.5027 54.762 35.2041H67.064C67.0183 34.5027 66.8045 33.8226 66.4405 33.2214C66.0765 32.6201 65.573 32.1153 64.9727 31.7497ZM56.4468 33.8664C57.158 32.6387 58.6468 32.0249 60.913 32.0249C63.1792 32.0249 64.6679 32.6387 65.3791 33.8664H56.4468Z" fill="#C3FF28"/>
        <path d="M68.0842 44.183C66.1284 45.47 63.7648 46.1134 60.9934 46.1134C57.7281 46.1134 55.0823 45.2555 53.056 43.5396C52.54 43.1046 52.0743 42.6133 51.6675 42.0749V45.6224H49.8302V36.0085C49.8302 33.2541 48.8961 31.1374 47.0278 29.6586C45.3824 28.366 43.2347 27.7197 40.5847 27.7197C37.9346 27.7197 35.7869 28.3688 34.1416 29.667C32.2648 31.1374 31.3264 33.2512 31.3264 36.0085V45.6224H29.4977V42.0156C29.0055 42.6665 28.4257 43.2464 27.7747 43.7385C25.7766 45.2625 23.2691 46.0231 20.2521 46.0203C17.2352 46.0175 14.7277 45.2569 12.7295 43.7385C11.7308 42.9935 10.906 42.0401 10.3123 40.9446C9.91259 41.8179 9.35911 42.6123 8.67828 43.2898C7.94957 44.0435 7.07381 44.6394 6.1053 45.0406C5.13679 45.4419 4.09617 45.6399 3.04798 45.6224H1.30386C3.41054 53.2094 7.94582 59.897 14.2153 64.661C20.4847 69.425 28.1428 72.003 36.0169 72.0001H72V38.159C71.8137 39.384 71.368 40.5551 70.6927 41.594C70.0174 42.6328 69.1281 43.5155 68.0842 44.183ZM45.5503 45.6224H43.7131V36.0085C43.7597 35.4885 43.6086 34.97 43.2898 34.5565C42.841 34.0965 41.9379 33.8665 40.5804 33.8665C39.2215 33.8665 38.3199 34.1035 37.8669 34.5777C37.5481 34.9912 37.3969 35.5097 37.4436 36.0297V45.6435H35.6105V36.0085C35.6105 33.3359 37.2672 32.001 40.5804 32.0038C43.8937 32.0066 45.5503 33.3415 45.5503 36.0085V45.6224ZM48.611 45.6224H46.7695V36.0085C46.7695 34.3152 46.2418 33.0212 45.1863 32.1266C44.1308 31.232 42.5955 30.7846 40.5804 30.7846C38.571 30.7846 37.0372 31.232 35.9788 32.1266C34.9205 33.0212 34.3928 34.3152 34.3956 36.0085V45.6224H32.5541V36.0085C32.5541 33.6746 33.3231 31.8881 34.8612 30.6492C36.2724 29.5203 38.1787 28.9559 40.5804 28.9559C42.9821 28.9559 44.8885 29.5203 46.2996 30.6492C47.8406 31.8881 48.611 33.6746 48.611 36.0085V45.6224Z" fill="#C3FF28"/>
    </g>
    <defs>
        <clipPath id="clip0_25_28">
            <rect width="72" height="72" fill="white"/>
        </clipPath>
    </defs>
</svg>
