<svg width="57" height="56" viewBox="0 0 57 56" fill="none" xmlns="http://www.w3.org/2000/svg">
    <path fill-rule="evenodd" clip-rule="evenodd" d="M18.4021 15.2248C16.5788 14.9962 14.4991 15.5773 13.1445 16.5933C11.7912 17.6084 11.1445 18.8134 10.9255 20.1274C10.8148 20.7918 10.8108 21.6629 10.9294 22.5233C11.0494 23.3936 11.282 24.1586 11.5789 24.6534C11.653 24.7769 11.7285 24.8388 11.7906 24.8743C11.857 24.9122 11.937 24.9359 12.0305 24.9431C12.1264 24.9505 12.2233 24.9392 12.3039 24.9182C12.355 24.9049 12.3831 24.8922 12.3914 24.8885L12.3928 24.8878C12.6554 24.7012 12.9961 24.6622 13.2947 24.7859C13.6008 24.9126 13.8172 25.1915 13.864 25.5195C13.9373 26.0321 14.1535 26.8191 14.433 27.5791C14.7241 28.3703 15.0228 28.9633 15.2049 29.1818C15.7267 29.8079 16.4072 30.2266 17.0835 30.4347C17.7545 30.6412 18.3518 30.6211 18.751 30.4725L19.7441 29.976C19.7713 29.9624 19.7989 29.9502 19.8267 29.9394C19.7257 28.2418 19.6457 26.8207 19.6457 26.4254C19.6457 25.9241 19.7254 25.2775 19.9876 24.669C19.8124 24.6929 19.6328 24.7137 19.4498 24.7308C19.4228 24.9558 19.3146 25.1716 19.1291 25.3306C19.0075 25.4348 18.8522 25.5756 18.6666 25.7438L18.6665 25.7439L18.6665 25.7439L18.5893 25.8138C18.3755 26.0074 18.1335 26.2255 17.8949 26.4291C17.6599 26.6296 17.408 26.8334 17.175 26.9916C17.059 27.0703 16.9279 27.1515 16.7916 27.2161C16.6766 27.2707 16.4584 27.3632 16.1958 27.3632C15.5754 27.3632 15.1636 26.9788 14.9587 26.7268C14.7411 26.4593 14.6024 26.159 14.532 25.9478C14.3682 25.4565 14.6337 24.9256 15.125 24.7618C15.6023 24.6027 16.1171 24.8489 16.2961 25.3136C16.4091 25.2273 16.5376 25.1222 16.6779 25.0025C16.8165 24.8843 16.9586 24.7587 17.0993 24.6325C14.9618 24.1063 13.5837 22.2977 13.0799 20.7862C12.9161 20.295 13.1816 19.764 13.6728 19.6003C14.1641 19.4365 14.695 19.702 14.8588 20.1932C15.2946 21.5007 16.5694 22.9078 18.3574 22.9078C20.0687 22.9078 21.6123 22.426 22.1181 22.2092C22.594 22.0052 23.1452 22.2257 23.3492 22.7016C23.3935 22.805 23.4177 22.9119 23.4237 23.018C24.2731 23.277 24.7884 23.9439 25.0684 24.5457C25.4126 25.2855 25.4904 26.0755 25.4904 26.4254C25.4904 26.5326 25.5129 27.0346 25.5477 27.7671C25.5831 27.6813 25.6174 27.5816 25.6496 27.4658C25.7789 27.0004 25.8412 26.3853 25.8412 25.6521C25.8412 24.4032 25.318 23.0993 24.7275 21.6278L24.7273 21.6272C24.6909 21.5367 24.6544 21.4455 24.6176 21.3537C24.1331 20.1423 23.1418 18.4069 22.415 17.4382C22.1238 17.0499 21.5457 16.5402 20.7896 16.0956C20.0404 15.6549 19.1942 15.3242 18.4021 15.2248ZM19.5502 32.1694L19.9487 31.9701L19.9544 32.0637C20.1094 34.638 20.2596 37.1746 20.2596 37.7829C20.2596 38.5849 20.4933 39.6757 21.1269 40.6261C21.7826 41.6096 22.8619 42.4279 24.4595 42.5877C25.3747 42.6792 26.1456 42.3943 26.7474 41.85C27.3149 41.3369 27.6914 40.6318 27.9613 39.9236C28.4027 38.7653 28.6518 37.323 28.8639 36.0951L28.8639 36.0951C28.9075 35.8427 28.9495 35.5993 28.9913 35.3694C29.0839 34.8599 28.746 34.3718 28.2366 34.2792C27.7271 34.1866 27.239 34.5245 27.1464 35.0339C27.0975 35.3029 27.0505 35.5736 27.0035 35.8437L27.0035 35.8437L27.0035 35.8438L27.0035 35.8438L27.0035 35.8439C26.7902 37.0709 26.5791 38.2849 26.2091 39.2559C25.9871 39.8384 25.7428 40.2303 25.4897 40.4593C25.271 40.6571 25.0215 40.7594 24.6461 40.7219C23.6625 40.6235 23.064 40.1512 22.6871 39.586C22.2882 38.9876 22.1347 38.2715 22.1347 37.7829C22.1347 37.1005 21.978 34.4746 21.8261 31.951L21.8056 31.6104C21.6579 29.1586 21.5208 26.8832 21.5208 26.4254C21.5208 26.0075 21.6097 25.5497 21.8015 25.2306C21.9592 24.9682 22.1852 24.7817 22.6482 24.7817C22.971 24.7817 23.1846 24.9419 23.3683 25.3367C23.5645 25.7585 23.6153 26.2591 23.6153 26.4254C23.6153 26.6389 23.6742 27.8545 23.7467 29.3511L23.7467 29.3515L23.7468 29.3523C23.772 29.8733 23.7989 30.4285 23.8256 30.9873C23.9309 33.196 24.0338 35.4885 24.0338 36.2341C24.0338 36.7519 24.4536 37.1717 24.9714 37.1717C25.4892 37.1717 25.9089 36.7519 25.9089 36.2341C25.9089 35.4311 25.8025 33.0773 25.6986 30.8979L25.6914 30.7465C26.5769 30.8288 27.4133 31.1291 28.2785 31.9944C28.4571 32.1729 28.6844 32.5367 28.9469 33.243C29.2037 33.9341 29.4635 34.8653 29.7554 36.0971C30.1298 37.6766 30.5423 39.6838 31.0625 42.215L31.0626 42.2157L31.0627 42.2161L31.0629 42.2169C31.356 43.6432 31.6833 45.2358 32.0572 47.012C32.1639 47.5187 32.6611 47.843 33.1678 47.7363C33.6745 47.6297 33.9988 47.1324 33.8921 46.6257C33.525 44.8817 33.2005 43.3032 32.9081 41.8807L32.9081 41.8806L32.9081 41.8804C32.3826 39.3235 31.9605 37.2703 31.58 35.6646C31.2831 34.412 31.0023 33.3911 30.7046 32.5898C30.4125 31.8039 30.0712 31.1352 29.6044 30.6684C28.7302 29.7942 27.8414 29.3219 26.966 29.0788C27.1951 28.7364 27.35 28.3501 27.4563 27.9677C27.6496 27.2717 27.7163 26.4672 27.7163 25.6521C27.7163 24.0217 27.0562 22.3864 26.4998 21.0081C26.4518 20.8892 26.4046 20.7722 26.3586 20.6573C25.8107 19.2875 24.737 17.4086 23.915 16.3129C23.4319 15.6689 22.6382 15.0074 21.7403 14.4793C20.8357 13.9472 19.7459 13.5035 18.6354 13.3643C16.3288 13.0751 13.7623 13.786 12.0194 15.0933C10.2752 16.4015 9.37312 18.0358 9.07588 19.8192C8.92848 20.7036 8.93243 21.7684 9.07186 22.7794C9.2099 23.7805 9.49351 24.8224 9.97099 25.6182C10.4272 26.3785 11.1109 26.7134 11.7457 26.7979C11.0314 30.1302 10.357 33.2656 10.124 34.2016C9.87264 35.2116 9.78916 36.3837 9.97653 37.4698C10.1623 38.5465 10.6384 39.6567 11.6188 40.3544C12.5605 41.0247 13.9437 41.3601 15.3127 40.8985C15.9511 40.6832 16.5491 40.3084 17.0784 39.762C17.0831 39.7812 17.0877 39.8001 17.0924 39.8188C17.3799 40.9677 17.8887 42.1365 18.375 43.2535L18.463 43.4558C18.9885 44.665 19.4842 45.8369 19.7696 47.0358C19.8895 47.5395 20.3951 47.8506 20.8988 47.7307C21.4025 47.6108 21.7137 47.1052 21.5937 46.6015C21.2647 45.2192 20.7024 43.9042 20.1827 42.7084L20.1178 42.559C19.6106 41.3928 19.1599 40.3566 18.9114 39.3636C18.7715 38.8042 18.6355 38.0102 18.5902 37.1743C18.6048 37.1325 18.6191 37.0903 18.6333 37.0477L18.5833 37.031C18.56 36.4676 18.5797 35.8902 18.6685 35.357C18.7535 34.8462 18.4084 34.3632 17.8976 34.2782C17.3868 34.1932 16.9038 34.5383 16.8188 35.0491C16.7196 35.6449 16.6888 36.2672 16.7023 36.872C16.1322 38.3042 15.3583 38.9043 14.7137 39.1216C13.9773 39.3699 13.2151 39.189 12.7061 38.8267C12.2757 38.5205 11.9627 37.9528 11.8244 37.151C11.6877 36.3586 11.7452 35.4515 11.9436 34.6546C12.1329 33.894 12.5924 31.7833 13.1239 29.3122C13.3231 29.7327 13.5409 30.114 13.7644 30.3823C14.1344 30.8263 14.5573 31.1988 15.0082 31.5001L14.005 34.9396C13.86 35.4367 14.1454 35.9572 14.6425 36.1022C15.1396 36.2471 15.6601 35.9617 15.8051 35.4646L16.7326 32.2845C17.6635 32.533 18.6473 32.534 19.4791 32.2013C19.5032 32.1916 19.5269 32.181 19.5502 32.1694Z" fill="#140000" fill-opacity="0.8"/>
    <path fill-rule="evenodd" clip-rule="evenodd" d="M32.8598 8.06513C33.1549 7.95311 33.4854 7.98692 33.7517 8.15634L35.9648 9.56469L38.1779 8.15634C38.4442 7.98692 38.7748 7.95311 39.0698 8.06513C39.3648 8.17715 39.5896 8.42185 39.6763 8.72528L40.3838 11.2015L47.1304 8.80758C47.5709 8.65128 48.0608 8.82093 48.3104 9.21612C48.5599 9.61131 48.5024 10.1266 48.1719 10.4571L42.879 15.75L44.6719 17.5429C44.9113 17.7823 45.0133 18.1265 44.943 18.4576C44.8727 18.7887 44.6397 19.0618 44.3238 19.1833L41.8717 20.1264L42.4426 22.7905C42.5169 23.1374 42.4019 23.4977 42.1403 23.7373C41.8788 23.977 41.5098 24.0601 41.1707 23.9558L38.5929 23.1626L36.7648 25.6C36.5701 25.8596 36.2615 26.0086 35.9371 25.9996C35.6126 25.9906 35.3128 25.8247 35.1328 25.5547L33.5377 23.1621L30.7395 23.9615C30.4019 24.058 30.0384 23.9703 29.7819 23.7305C29.5253 23.4906 29.4134 23.1338 29.487 22.7905L30.0534 20.1471L27.3785 19.1917C27.0477 19.0736 26.8031 18.7906 26.7342 18.4461C26.6653 18.1017 26.7822 17.7463 27.0421 17.5101L29.2137 15.5359L27.8343 12.9741C27.6675 12.6642 27.6758 12.2894 27.8563 11.9872C28.0368 11.685 28.3628 11.5 28.7148 11.5H31.4605L32.2533 8.72528C32.34 8.42185 32.5648 8.17715 32.8598 8.06513ZM33.8083 10.563L33.1763 12.7747C33.0537 13.204 32.6613 13.5 32.2148 13.5H30.389L31.3453 15.2759C31.563 15.6803 31.4773 16.181 31.1375 16.4899L29.6207 17.8688L31.5511 18.5583C32.0234 18.7269 32.2977 19.2192 32.1926 19.7095L31.7916 21.5809L33.6901 21.0385C34.1082 20.919 34.5556 21.0835 34.7969 21.4453L36.0128 23.2693L37.4148 21.4C37.6679 21.0625 38.1057 20.9202 38.5089 21.0442L40.1299 21.543L39.737 19.7095C39.6339 19.2282 39.8964 18.7434 40.3558 18.5667L42.1696 17.869L40.7577 16.4571C40.3672 16.0666 40.3672 15.4334 40.7577 15.0429L43.6281 12.1725L40.0492 13.4424C39.789 13.5348 39.5022 13.5154 39.2568 13.3889C39.0114 13.2625 38.8291 13.0402 38.7533 12.7747L38.1213 10.563L36.5017 11.5937C36.1741 11.8021 35.7555 11.8021 35.4279 11.5937L33.8083 10.563Z" fill="#140000" fill-opacity="0.8"/>
    <path fill-rule="evenodd" clip-rule="evenodd" d="M36.2137 13.0006C36.766 13.0006 37.2137 13.4483 37.2137 14.0006V17.0006C37.2137 17.5529 36.766 18.0006 36.2137 18.0006C35.6615 18.0006 35.2137 17.5529 35.2137 17.0006V14.0006C35.2137 13.4483 35.6615 13.0006 36.2137 13.0006Z" fill="#140000" fill-opacity="0.8"/>
    <path d="M37.2137 19.4991C37.2137 20.0514 36.766 20.4991 36.2137 20.4991C35.6615 20.4991 35.2137 20.0514 35.2137 19.4991C35.2137 18.9469 35.6615 18.4991 36.2137 18.4991C36.766 18.4991 37.2137 18.9469 37.2137 19.4991Z" fill="#140000" fill-opacity="0.8"/>
</svg>
