<svg width="57" height="56" viewBox="0 0 57 56" fill="none" xmlns="http://www.w3.org/2000/svg">
    <path fill-rule="evenodd" clip-rule="evenodd" d="M22.0036 16.5884C22.0036 16.0892 22.4083 15.6844 22.9076 15.6844H24.4895C24.9887 15.6844 25.3935 16.0892 25.3935 16.5884C25.3935 17.0877 24.9887 17.4924 24.4895 17.4924H22.9076C22.4083 17.4924 22.0036 17.0877 22.0036 16.5884Z" fill="#140000" fill-opacity="0.8"/>
    <path fill-rule="evenodd" clip-rule="evenodd" d="M15.9002 26.7583C16.3995 26.7583 16.8042 27.163 16.8042 27.6623V33.538C16.8792 33.538 16.9452 33.53 16.997 33.5175C17.0098 33.5144 17.0208 33.5112 17.0302 33.5082V31.7301C17.0302 31.2308 17.4349 30.8261 17.9342 30.8261C18.4334 30.8261 18.8381 31.2308 18.8381 31.7301V33.538C18.8381 34.1879 18.5326 34.6947 18.0694 34.9994C17.6559 35.2714 17.1786 35.3459 16.8042 35.3459C16.2733 35.3459 15.8403 35.1241 15.5468 34.862C15.4001 34.7311 15.2744 34.5784 15.1804 34.4138C15.0952 34.2648 14.9963 34.0363 14.9963 33.764V27.6623C14.9963 27.163 15.401 26.7583 15.9002 26.7583Z" fill="#140000" fill-opacity="0.8"/>
    <path fill-rule="evenodd" clip-rule="evenodd" d="M13.5253 26.541C14.0207 26.6029 14.3721 27.0547 14.3101 27.5501C14.1961 28.4621 14.0258 29.6547 13.885 30.6398L13.8843 30.645C13.8135 31.1403 13.7504 31.5822 13.7049 31.9144C13.6822 32.0808 13.6644 32.2158 13.6524 32.3143C13.6427 32.3946 13.6399 32.4272 13.6392 32.4306C13.6402 32.5197 13.6474 32.5519 13.6567 32.5705C13.6567 32.5706 13.6568 32.5707 13.6568 32.5708C13.6576 32.5725 13.6596 32.5768 13.6715 32.5861C13.686 32.5974 13.737 32.6324 13.8584 32.6628C14.3427 32.7839 14.6372 33.2746 14.5161 33.759C14.395 34.2433 13.9042 34.5378 13.4199 34.4167C12.7316 34.2446 12.2794 33.8586 12.0396 33.379C11.8302 32.9602 11.8309 32.5561 11.8312 32.4216C11.8312 32.4174 11.8312 32.4134 11.8312 32.4097C11.8312 32.3144 11.8474 32.181 11.8575 32.0976L11.8577 32.0965C11.8713 31.9841 11.8906 31.8383 11.9137 31.6693C11.96 31.3312 12.0238 30.8844 12.0941 30.3922L12.0945 30.3893C12.2361 29.398 12.4044 28.2203 12.5162 27.3259C12.5781 26.8305 13.0299 26.4791 13.5253 26.541Z" fill="#140000" fill-opacity="0.8"/>
    <path fill-rule="evenodd" clip-rule="evenodd" d="M13.8649 20.8818C13.0453 20.8818 12.4502 21.3258 12.2474 22.0344C12.0812 22.6152 12.4167 23.355 13.2773 24.0004C13.6224 24.2592 14.0881 24.4628 14.5118 24.5013C14.9053 24.5371 15.1988 24.4341 15.4188 24.159C15.7307 23.7691 16.2995 23.7058 16.6894 24.0177C17.0793 24.3295 17.1425 24.8984 16.8307 25.2882C16.1469 26.1431 15.1976 26.3791 14.3481 26.3018C13.5287 26.2274 12.7514 25.866 12.1925 25.4468C11.1242 24.6455 10.0287 23.2162 10.5092 21.537C10.9531 19.9858 12.3101 19.0739 13.8649 19.0739C14.364 19.0739 14.8176 19.2436 15.1932 19.4453C15.572 19.6485 15.9266 19.9144 16.2397 20.1737C16.4978 20.3875 16.7511 20.6169 16.9763 20.8209C17.0235 20.8638 17.0696 20.9055 17.1142 20.9457C17.2901 21.1043 17.441 21.2373 17.5728 21.3446C17.8662 21.3633 18.2243 21.4081 18.5862 21.4935C19.0659 21.6066 19.7012 21.8241 20.1536 22.2765C20.5231 22.646 20.9466 23.1304 21.311 23.6163C21.6584 24.0795 22.0178 24.6296 22.1799 25.1157C22.3427 25.6041 23.5653 28.392 24.1823 29.7803C24.2093 29.8411 24.2296 29.9048 24.2426 29.9701C24.3246 30.3801 24.4224 31.0254 24.4513 31.6538C24.4658 31.9675 24.4643 32.3008 24.4276 32.6099C24.3939 32.8938 24.3189 33.2709 24.1084 33.5867C24.1083 33.5868 24.1081 33.5871 24.1077 33.5878L24.1056 33.591C24.1038 33.5939 24.1013 33.598 24.0982 33.6033C24.0918 33.6141 24.0835 33.6286 24.0734 33.6471C24.053 33.6846 24.028 33.7332 23.9985 33.7935C23.9392 33.9145 23.8684 34.0691 23.788 34.2525C23.6273 34.619 23.4381 35.0788 23.241 35.5727C22.8879 36.4581 22.5174 37.4342 22.2559 38.1387L23.1156 42.8672C23.1253 42.9205 23.1302 42.9746 23.1302 43.0289C23.1302 43.0369 23.1302 43.0455 23.1303 43.0544C23.1306 43.2756 23.1312 43.7504 22.9628 44.2135C22.7654 44.7563 22.3332 45.2898 21.5415 45.4878C19.9917 45.8752 18.962 44.6823 18.6568 43.7667C18.5719 43.512 18.4759 42.9739 18.3857 42.4227C18.2889 41.8311 18.182 41.1109 18.0828 40.4166C17.9835 39.7213 17.8913 39.0479 17.824 38.5485C17.7904 38.2988 17.7629 38.0924 17.7438 37.9483L17.7141 37.7223C17.7141 37.7222 17.714 37.722 18.6104 37.6051L17.7141 37.7223C17.6941 37.569 17.7137 37.4129 17.7711 37.2694L19.579 32.7495C19.7644 32.286 20.2905 32.0605 20.7541 32.246C21.2176 32.4314 21.4431 32.9575 21.2577 33.421L19.5375 37.7214C19.5563 37.8637 19.5831 38.0648 19.6157 38.3071C19.6826 38.8035 19.7741 39.4719 19.8725 40.1609C19.9711 40.8508 20.076 41.5571 20.1699 42.1308C20.2169 42.418 20.2603 42.6669 20.2981 42.8615C20.317 42.9589 20.3336 43.0384 20.3478 43.0999C20.3549 43.1304 20.3608 43.1542 20.3654 43.1718C20.3704 43.1904 20.3726 43.197 20.372 43.195C20.4328 43.3776 20.5554 43.5517 20.6958 43.6537C20.8154 43.7407 20.9395 43.7747 21.1031 43.7338C21.1841 43.7136 21.2091 43.6892 21.2147 43.6838C21.2239 43.6748 21.2432 43.652 21.2637 43.5956C21.3088 43.4716 21.32 43.313 21.322 43.1085L20.4329 38.2188C20.404 38.0599 20.4182 37.8961 20.4741 37.7446C20.7396 37.0238 21.1606 35.9087 21.5618 34.9029C21.7621 34.4006 21.9599 33.9197 22.1321 33.5268C22.2878 33.1715 22.4528 32.8167 22.5925 32.6015C22.5924 32.5984 22.6151 32.5419 22.6323 32.3968C22.6531 32.2219 22.6572 31.9959 22.6453 31.737C22.6236 31.266 22.5527 30.7651 22.4883 30.4202C21.8833 29.0576 20.6589 26.27 20.4647 25.6874C20.4008 25.4956 20.1952 25.1417 19.8647 24.701C19.5511 24.2829 19.1836 23.8633 18.8752 23.5549C18.7852 23.4649 18.5542 23.3434 18.1713 23.2531C17.8162 23.1694 17.4572 23.1417 17.2545 23.1417C17.069 23.1417 16.888 23.0846 16.7361 22.9783C16.4574 22.7832 16.1672 22.5262 15.9034 22.2883C15.8526 22.2425 15.8023 22.1969 15.7523 22.1517C15.528 21.9486 15.3107 21.7518 15.0865 21.5661C14.8132 21.3397 14.5643 21.1595 14.3382 21.0382C14.1091 20.9152 13.9568 20.8818 13.8649 20.8818Z" fill="#140000" fill-opacity="0.8"/>
    <path fill-rule="evenodd" clip-rule="evenodd" d="M24.3302 41.7788C24.5219 41.3178 25.051 41.0995 25.512 41.2912C26.2037 41.5789 26.8205 41.9341 27.2787 42.3681C27.7385 42.8036 28.1028 43.3845 28.1028 44.0912C28.1028 44.8731 27.6594 45.4978 27.1272 45.9502C26.5912 46.4058 25.8691 46.7753 25.0556 47.0678C23.4209 47.6555 21.2223 48.0016 18.8371 48.0016C16.452 48.0016 14.2534 47.6555 12.6187 47.0678C11.8052 46.7753 11.0831 46.4058 10.5471 45.9502C10.0149 45.4978 9.57153 44.8731 9.57153 44.0912C9.57153 43.4284 9.89303 42.8744 10.3117 42.4503C10.7269 42.0297 11.2855 41.6837 11.9103 41.4006C12.3651 41.1945 12.9007 41.3961 13.1068 41.8509C13.3129 42.3056 13.1112 42.8413 12.6565 43.0473C12.1494 43.2771 11.8041 43.5119 11.5983 43.7204C11.396 43.9253 11.3795 44.0485 11.3795 44.0912C11.3795 44.1396 11.4041 44.3058 11.7181 44.5727C12.0284 44.8365 12.5307 45.1149 13.2304 45.3665C14.6221 45.8668 16.6043 46.1937 18.8371 46.1937C21.07 46.1937 23.0522 45.8668 24.4439 45.3665C25.1436 45.1149 25.6459 44.8365 25.9562 44.5727C26.2702 44.3058 26.2948 44.1396 26.2948 44.0912C26.2948 44.0466 26.2758 43.9084 26.0355 43.6808C25.7936 43.4517 25.3934 43.1999 24.8178 42.9605C24.3568 42.7689 24.1385 42.2398 24.3302 41.7788Z" fill="#140000" fill-opacity="0.8"/>
    <path fill-rule="evenodd" clip-rule="evenodd" d="M39.9647 20.4505C39.9986 20.4434 40.0419 20.4376 40.0951 20.434C40.1625 20.4293 40.2279 20.429 40.3048 20.429C40.804 20.429 41.2087 20.0243 41.2087 19.5251C41.2087 19.0258 40.804 18.6211 40.3048 18.6211C40.2993 18.6211 40.2935 18.6211 40.2874 18.6211C40.1383 18.6209 39.8141 18.6206 39.4834 18.7069C39.1283 18.7995 38.6397 19.0259 38.3663 19.5728C38.2794 19.7466 38.2129 19.9903 38.1632 20.1899C38.1054 20.4221 38.0428 20.7127 37.9792 21.0437C37.8518 21.7069 37.7151 22.559 37.5998 23.4808C37.5379 23.9762 37.8893 24.428 38.3847 24.4899C38.8801 24.5518 39.3319 24.2004 39.3938 23.705C39.5046 22.8189 39.6354 22.006 39.7547 21.3848C39.8145 21.0735 39.8701 20.817 39.9175 20.6269C39.9371 20.5483 39.953 20.4907 39.9647 20.4505Z" fill="#140000" fill-opacity="0.8"/>
    <path fill-rule="evenodd" clip-rule="evenodd" d="M42.4595 13.1666C42.0302 13.1428 41.6431 13.1994 41.388 13.3269C40.9786 13.5314 40.7589 13.9375 40.7589 15.0042C40.7589 15.4936 40.9258 15.9862 41.1809 16.3395C41.4412 16.6999 41.7068 16.8121 41.8879 16.8121C42.3871 16.8121 42.7918 17.2168 42.7918 17.7161C42.7918 18.2153 42.3871 18.62 41.8879 18.62C40.9399 18.62 40.1891 18.0543 39.7152 17.3979C39.2361 16.7344 38.951 15.871 38.951 15.0042C38.951 13.8115 39.1812 12.4085 40.5798 11.7096C41.2287 11.3854 41.9717 11.3289 42.5595 11.3615C43.1386 11.3935 43.7251 11.5219 44.1008 11.7099C44.5877 11.9537 44.8734 12.3907 45.0307 12.7448C45.1931 13.1102 45.2781 13.5174 45.2781 13.8745V17.5548C45.7169 17.5839 46.3245 17.7104 46.8212 18.2071C47.1499 18.5358 47.3441 19.0075 47.4686 19.3883C47.6039 19.8024 47.7045 20.2661 47.7791 20.6984C47.9266 21.5542 47.99 22.3981 47.99 22.6881C47.99 22.849 47.9518 22.9896 47.9316 23.0591C47.9061 23.1465 47.8736 23.2355 47.8405 23.3189C47.7739 23.4865 47.6845 23.6817 47.5853 23.8857C47.3857 24.2965 47.1212 24.7948 46.8534 25.2822C46.3241 26.2454 45.7424 27.2371 45.5782 27.4834C45.3288 27.8576 44.9622 28.3212 44.4924 28.6203C44.2485 28.7755 43.9401 28.9099 43.5808 28.9328C43.2064 28.9567 42.8421 28.8549 42.5169 28.6382C41.857 28.1985 41.662 27.5294 41.6621 26.9818C41.6622 26.4629 41.8284 25.9842 41.9836 25.6737C42.1697 25.3017 43.125 23.4781 43.5738 22.6236C43.8059 22.1816 44.3524 22.0114 44.7944 22.2435C45.2364 22.4756 45.4065 23.0221 45.1744 23.4641C44.7192 24.331 43.7763 26.1311 43.6007 26.4823C43.5299 26.6238 43.47 26.823 43.47 26.9821C43.47 27.0539 43.4822 27.0899 43.4878 27.1022C43.4879 27.1024 43.488 27.1027 43.4882 27.103C43.4891 27.1051 43.4903 27.1079 43.4935 27.1118C43.5016 27.1074 43.511 27.1019 43.5216 27.0951C43.6732 26.9986 43.8714 26.7843 44.0739 26.4805C44.1901 26.3063 44.7383 25.3772 45.2689 24.4115C45.5311 23.9345 45.779 23.4665 45.9593 23.0955C46.0501 22.9086 46.1175 22.759 46.1603 22.6514C46.1681 22.6316 46.1745 22.6149 46.1796 22.601C46.1682 22.3403 46.1154 21.6899 45.9974 21.0055C45.9307 20.6186 45.8478 20.249 45.75 19.9498C45.7013 19.8008 45.6535 19.6834 45.6096 19.5968C45.5676 19.5142 45.5417 19.4847 45.5419 19.4846C45.5419 19.4845 45.5422 19.4849 45.5428 19.4855C45.4672 19.4098 45.3285 19.3548 45.0238 19.3548C44.9538 19.3548 44.8845 19.3575 44.8082 19.3609C44.8003 19.3613 44.792 19.3616 44.7834 19.362C44.7193 19.365 44.6355 19.3689 44.5613 19.3689H44.5596C44.4964 19.3689 44.3222 19.3689 44.1417 19.3095C44.0416 19.2766 43.8696 19.2037 43.7186 19.0378C43.5477 18.8502 43.4701 18.6169 43.4701 18.3943V13.8745C43.4701 13.7798 43.4421 13.6221 43.3785 13.4789C43.3284 13.366 43.2864 13.3275 43.281 13.3217C43.1893 13.2806 42.8799 13.1899 42.4595 13.1666ZM46.1958 22.5533C46.1957 22.5536 46.1956 22.5539 46.1955 22.5543C46.1981 22.5433 46.1991 22.5422 46.1958 22.5533ZM44.544 17.5604C44.5442 17.5603 44.549 17.5603 44.5574 17.561C44.5479 17.5609 44.5437 17.5606 44.544 17.5604Z" fill="#140000" fill-opacity="0.8"/>
    <path fill-rule="evenodd" clip-rule="evenodd" d="M33.9313 12.5906C33.5501 12.3363 32.9558 12.3042 32.4589 12.4698C32.3809 12.4958 32.2585 12.5835 32.1264 12.7751C32.066 12.8628 32.0159 12.9547 31.9784 13.0367C31.9662 13.0635 31.9558 13.0881 31.9473 13.1098V17.036C31.9473 17.5353 31.5425 17.94 31.0433 17.94H29.9133C29.8027 17.94 29.7478 17.9602 29.728 17.9691C29.7083 17.978 29.7002 17.9862 29.6956 17.9916C29.6925 17.9952 29.6898 17.9992 29.6874 18.0031C29.6875 18.4103 29.6873 20.3486 29.6872 21.3308C29.6871 21.6565 29.5119 21.9569 29.2285 22.1174C28.9451 22.2778 28.5974 22.2734 28.3181 22.1059L26.138 20.7979C25.9793 20.7405 25.8251 20.6751 25.6694 20.609C25.1952 20.4078 24.7077 20.2008 24.0374 20.2008C23.5381 20.2008 23.1334 19.7961 23.1334 19.2969C23.1334 18.7976 23.5381 18.3929 24.0374 18.3929C25.1423 18.3929 26.1804 18.8464 26.6214 19.039C26.7088 19.0772 26.7728 19.1051 26.8091 19.1173C26.8717 19.1381 26.9318 19.1658 26.9884 19.1997L27.8794 19.7343C27.8795 18.8683 27.8795 18.049 27.8794 17.9408C27.8791 17.6108 28.0135 17.176 28.323 16.8149C28.6696 16.4106 29.2059 16.1321 29.9133 16.1321H30.1393V12.9682C30.1393 12.8943 30.1484 12.8207 30.1663 12.749C30.2315 12.4881 30.3912 12.1067 30.638 11.7489C30.8824 11.3943 31.2872 10.9547 31.8872 10.7547C32.7462 10.4684 33.9599 10.4363 34.9346 11.0866C35.4582 11.4359 35.9064 11.8469 36.2209 12.3604C36.5417 12.8843 36.6929 13.4651 36.6929 14.0998L36.6929 14.1148C36.6929 14.3387 36.693 14.7389 36.6241 15.1518C36.5571 15.5538 36.4025 16.1192 35.9771 16.5459C35.3159 17.2093 34.3849 17.4897 33.529 17.4897C33.0297 17.4897 32.625 17.085 32.625 16.5857C32.625 16.0865 33.0297 15.6818 33.529 15.6818C34.029 15.6818 34.4536 15.5135 34.6967 15.2696C34.7235 15.2426 34.7949 15.1301 34.8408 14.8545C34.8834 14.5993 34.8849 14.3312 34.8849 14.0998C34.8849 13.7669 34.8102 13.5187 34.6791 13.3047C34.5417 13.0803 34.3119 12.8444 33.9313 12.5906Z" fill="#140000" fill-opacity="0.8"/>
    <path fill-rule="evenodd" clip-rule="evenodd" d="M34.5958 18.6677C35.0694 18.5099 35.5813 18.7658 35.7392 19.2394C35.835 19.5269 35.8819 19.9237 35.9071 20.2938C35.9341 20.6911 35.9413 21.1523 35.9264 21.6166C35.9114 22.0801 35.8738 22.5624 35.8069 22.999C35.7432 23.4151 35.642 23.8678 35.4642 24.2234C35.1389 24.8738 34.9182 25.5921 34.8546 25.8463C34.7336 26.3306 34.2428 26.6251 33.7584 26.504C33.2741 26.3829 32.9796 25.8921 33.1007 25.4078C33.1878 25.0594 33.4492 24.2108 33.8471 23.4149C33.8953 23.3185 33.9635 23.0932 34.0199 22.7253C34.073 22.3781 34.1061 21.9706 34.1194 21.5583C34.1326 21.147 34.1258 20.7466 34.1033 20.4164C34.0921 20.2513 34.0775 20.1106 34.061 19.9991C34.0529 19.9437 34.0448 19.8992 34.0375 19.865C34.0338 19.8481 34.0307 19.8351 34.0281 19.8255C34.0269 19.8208 34.0259 19.8173 34.0252 19.8148C34.0244 19.8122 34.024 19.8111 34.0241 19.8112C33.8662 19.3375 34.1221 18.8256 34.5958 18.6677Z" fill="#140000" fill-opacity="0.8"/>
    <path fill-rule="evenodd" clip-rule="evenodd" d="M27.6831 24.0872C28.1042 24.3553 28.2284 24.914 27.9604 25.3352C27.7437 25.6757 27.6497 25.9975 27.6497 26.3043C27.6497 26.7533 27.8544 27.2528 28.3716 27.7864C28.893 28.3242 29.6912 28.8499 30.7478 29.311C32.8583 30.232 35.8372 30.8242 39.1752 30.8242C41.992 30.8242 44.5592 30.4023 46.5652 29.713C47.0373 29.5508 47.5516 29.802 47.7138 30.2741C47.8761 30.7463 47.6248 31.2606 47.1527 31.4228C44.9293 32.1868 42.1596 32.6321 39.1752 32.6321C35.6487 32.6321 32.4128 32.0101 30.0247 30.968C28.8321 30.4476 27.81 29.8046 27.0734 29.0447C26.3327 28.2805 25.8418 27.3531 25.8418 26.3043C25.8418 25.6036 26.0627 24.9498 26.4351 24.3646C26.7031 23.9434 27.2619 23.8192 27.6831 24.0872Z" fill="#140000" fill-opacity="0.8"/>
    <path fill-rule="evenodd" clip-rule="evenodd" d="M22.8903 12.1674C23.2099 11.7839 23.7799 11.7321 24.1634 12.0517L25.5194 13.1817C25.9029 13.5013 25.9547 14.0713 25.6351 14.4548C25.3155 14.8383 24.7455 14.8902 24.362 14.5705L23.006 13.4406C22.6225 13.121 22.5707 12.551 22.8903 12.1674Z" fill="#140000" fill-opacity="0.8"/>
    <path fill-rule="evenodd" clip-rule="evenodd" d="M26.9504 9.84593C27.4304 9.70877 27.9308 9.98673 28.0679 10.4668L28.5199 12.0487C28.6571 12.5287 28.3791 13.0291 27.8991 13.1662C27.419 13.3034 26.9187 13.0254 26.7816 12.5454L26.3296 10.9634C26.1924 10.4834 26.4704 9.98308 26.9504 9.84593Z" fill="#140000" fill-opacity="0.8"/>
    <path fill-rule="evenodd" clip-rule="evenodd" d="M46.4568 8.15192C46.8722 8.42885 46.9844 8.99009 46.7075 9.40549L45.8035 10.7614C45.5266 11.1768 44.9654 11.2891 44.55 11.0121C44.1346 10.7352 44.0223 10.174 44.2993 9.75857L45.2032 8.40263C45.4801 7.98723 46.0414 7.87499 46.4568 8.15192Z" fill="#140000" fill-opacity="0.8"/>
    <path fill-rule="evenodd" clip-rule="evenodd" d="M49.2753 11.9376C49.4719 12.3965 49.2593 12.9279 48.8005 13.1246L47.2185 13.8026C46.7597 13.9992 46.2282 13.7867 46.0316 13.3278C45.8349 12.8689 46.0475 12.3375 46.5064 12.1408L48.0883 11.4628C48.5472 11.2662 49.0786 11.4788 49.2753 11.9376Z" fill="#140000" fill-opacity="0.8"/>
    <path fill-rule="evenodd" clip-rule="evenodd" d="M15.3603 36.022C15.8298 36.0021 16.2256 36.3888 16.2444 36.8857L16.4571 42.5131C16.4575 42.5251 16.4578 42.5371 16.4578 42.5491C16.4578 42.7105 16.5433 42.9301 16.7136 43.0953C16.8802 43.2569 17.0227 43.2723 17.1022 43.2513C17.558 43.1307 18.0199 43.424 18.1338 43.9064C18.2478 44.3889 17.9706 44.8777 17.5148 44.9983C16.7436 45.2024 16.0353 44.8801 15.5639 44.4227C15.1004 43.9731 14.7625 43.3005 14.7564 42.5694L14.5443 36.9576C14.5255 36.4608 14.8909 36.0418 15.3603 36.022Z" fill="#140000" fill-opacity="0.8"/>
</svg>
