<svg width="56" height="56" viewBox="0 0 56 56" fill="none" xmlns="http://www.w3.org/2000/svg">
    <path d="M24.4973 14.9054L28.4481 18.8104C28.6683 19.0279 28.9278 19.1419 29.2265 19.1524C29.5267 19.1613 29.8012 19.0421 30.0501 18.7947C30.2915 18.5503 30.4137 18.2873 30.4167 18.0057C30.4197 17.724 30.2975 17.4603 30.0501 17.2144L24.6466 11.8765C24.2801 11.5144 23.8532 11.3334 23.3659 11.3334C22.8787 11.3334 22.4517 11.5144 22.0852 11.8765L16.6817 17.2144C16.4705 17.423 16.3551 17.6778 16.3355 17.9789C16.3159 18.2799 16.4313 18.5526 16.6817 18.797C16.923 19.0354 17.19 19.1546 17.4827 19.1546C17.7753 19.1546 18.0424 19.0354 18.2837 18.797L22.2345 14.9054V45.2157C22.2345 45.5346 22.3424 45.8006 22.5581 46.0137C22.7738 46.2268 23.0431 46.3334 23.3659 46.3334C23.6887 46.3334 23.958 46.2268 24.1737 46.0137C24.3894 45.8006 24.4973 45.5346 24.4973 45.2157V38.425C25.2335 35.6964 26.5255 33.6638 28.3734 32.3271C30.2199 30.9904 32.2337 30.3221 34.415 30.3221C35.2357 30.3221 36.0714 30.3638 36.9222 30.4472C37.7715 30.5322 38.5921 30.6402 39.3841 30.7714L35.4333 34.6764C35.2221 34.885 35.109 35.1391 35.0939 35.4386C35.0788 35.7382 35.1964 36.0109 35.4469 36.2567C35.6867 36.4952 35.953 36.6144 36.2456 36.6144C36.5383 36.6144 36.8053 36.4952 37.0466 36.2567L42.4501 30.9189C42.8167 30.5583 43 30.1373 43 29.656C43 29.1746 42.8167 28.7529 42.4501 28.3908L37.0466 23.0529C36.8354 22.8443 36.5782 22.7303 36.275 22.7109C35.9718 22.6916 35.695 22.8056 35.4446 23.0529C35.2032 23.2914 35.0826 23.5544 35.0826 23.842C35.0826 24.1296 35.2032 24.3934 35.4446 24.6333L39.3818 28.5361C38.608 28.4049 37.8152 28.3066 37.0036 28.241C36.1921 28.1755 35.3465 28.1419 34.4671 28.1404C32.4004 28.1404 30.5163 28.586 28.8147 29.4771C27.11 30.3668 25.6709 31.7184 24.4973 33.5319V14.9054Z" fill="#140000" fill-opacity="0.8"/>
</svg>
